<?xml version="1.0" encoding="utf-8"?>
<svg viewBox="0 0 700 700" xmlns="http://www.w3.org/2000/svg">
  <path d="m244.87 130.25c-0.15922-0.058105-0.31844-0.11621-0.94932-0.21944-0.47168-0.04512-0.92027-0.009719-0.92027-0.009719s-0.024719 0.015014-0.13719-0.033783c-0.33931-0.10181-0.56898-0.1194-0.80147-0.10156-0.17828-0.001755-0.35657-0.003494-0.93489-0.17003-0.98588-0.33511-1.5717-0.50545-2.1575-0.67577 0 0-0.46826-0.029296-0.97-0.019912-0.6797 0.016571-0.85765 0.023773-1.0356 0.030975 0 0 0.014862-0.02211-0.23056-0.25301-2.4137-0.87467-4.5423-1.8367-6.7563-2.1122-18.635-2.319-36.8 0.44936-54.727 5.3896-3.7282 1.0274-5.8253-0.063019-6.0454-4.23 1.4266-1.2671 2.6574-2.3004 4.1548-3.4879 0.72273-0.55659 1.1789-0.95898 1.8418-1.402 0.48433-0.14185 0.69235-0.32298 1.1022-0.70306 0.7229-0.48689 1.1744-0.85476 1.6686-1.2169 0.04277 0.005767 0.054336-0.079796 0.34613-0.18871 1.4585-0.97283 2.6252-1.8368 4.1123-2.7878 1.0804-0.5353 1.8404-0.98347 2.8501-1.5331 0.76502-0.57383 1.2802-1.0462 1.7343-1.4796-0.061203 0.03894 0.016632 0.16138 0.34074 0.077812 0.80122-0.74474 1.2784-1.4059 1.7303-2.0097-0.025192 0.057357 0.089569 0.10764 0.46124 0.1141 2.8001-1.0626 5.2611-2.0637 7.6519-3.2112 25.469-12.224 51.877-21.009 80.451-21.524 8.4714-0.15265 16.954 0.2932 25.431 0.46481 7.61 5.1341 15.553 9.8461 22.737 15.52 7.3407 5.7972 13.936 12.538 21.074 19.459 0.13721 6.1651-3.9604 7.3593-8.2053 7.8383-3.9458 0.44525-8.015-0.11832-11.935 0.43391-2.0019 0.282-4.9509 1.6461-5.4756 3.1966-1.8391 5.4349-5.3705 5.0167-9.9012 4.6123-6.5105-0.5811-13.11-0.083542-19.663-0.31276-2.6126-0.091401-5.4548-0.37048-7.7437-1.4855-4.1231-2.0086-7.9356-3.4896-11.992-0.15562-0.44257-0.011352-0.8851-0.02269-1.8341-0.36856-4.6689-2.6817-9.6455-4.2513-12.804-7.5576-4.7879-5.0123-8.358-3.0245-12.469 0.11244z" style="fill: rgb(67, 226, 167);"/>
  <path d="m361.03 623.1c-3.6078 7.6243-6.9541 15.389-10.944 22.808-1.7555 3.2643-5.4465 2.7305-8.0802-1.113-4.4112-6.4376-8.4109-13.155-12.663-19.704-18.743-28.87-42.405-53.192-69.132-74.676-2.3313-1.874-4.6064-3.8176-6.8733-6.2457 1.1167-2.7183 2.3475-4.8608 3.2506-7.1337 1.9305-4.8585 7.7084-6.5739 11.831-3.394 2.5844 1.9935 2.3431 4.2514-0.68268 5.6829-1.3425 0.63513-3.2203 0.68488-4.0691 1.6745-0.98621 1.1498-1.1102 3.0392-1.6084 4.6076 1.5686 0.21191 3.1563 0.66315 4.6981 0.5401 0.8349-0.066711 1.6151-1.0844 2.3799-1.7211 4.6854-3.9005 9.1503-8.1155 14.137-11.581 2.0905-1.4529 5.3121-1.9158 7.9573-1.7616 2.8956 0.16876 5.7317 1.5317 8.5714 2.444 3.9598 1.272 5.5382-0.044311 5.4275-4.1838-0.048217-1.8029 0.62878-3.6251 1.2421-5.3132 0.99304 0.43903 1.7204 0.75269 2.4494 1.0355 0.001587-0.030823-0.0448 0.010009-0.008667 0.28845 0.089966 0.64917 0.14386 1.0198 0.21936 1.7452 0.21161 2.8206 1.13 4.4412 4.2681 3.9884 2.6511 2.153 5.041 4.106 7.477 6.0427 0.046021-0.016358 0.070923-0.11078 0.13324 0.17834 0.35577 0.79999 0.6492 1.311 1.075 1.9948 0.32193 0.39429 0.53284 0.59308 0.95254 1.05 5.4082 7.1641 11.089 13.75 15.76 20.988 12.147 18.822 23.443 38.075 22.231 61.758z" style="fill: rgb(67, 226, 167);"/>
  <path d="m547.42 469.21c-0.55127 0.26001-1.1026 0.52002-2.2742 0.93958-1.7598 1.0571-2.8994 1.9547-4.0389 2.8522 0 0-0.06836 0.065735-0.25952 0.22626-0.3869 0.35617-0.5827 0.55179-0.77844 0.74738 0 0-0.025879 0.05838-0.39105 0.16687-7.1662 3.7189-14.383 6.7408-20.62 11.149-4.0613 2.8708-6.6967 7.7588-9.9709 11.743 0 0-0.029754 0.028992-0.43124 0.061096-2.8214 1.0354-5.3277 1.8723-7.644 3.0752-5.5476 2.8809-10.939 6.0703-16.55 8.8145-1.2885 0.63007-3.2085-0.03714-4.8382-0.098175-5.2927-0.19821-10.61-0.75858-15.866-0.40863-2.1202 0.14114-4.0843 2.319-6.1612 3.4962-2.4253 1.3748-4.7658 3.2897-7.3807 3.839-3.1868 0.6695-6.6246 0.063721-9.9473 0.18646-4.3526 0.16077-6.7392-1.6204-7.5561-6.0862-1.0012-5.4736-2.659-10.768-8.4812-13.21 5.7332-4.7282 11.24-9.2202 17.016-13.911 4.706-3.4027 9.2198-6.5066 13.565-9.8309 10.789-8.2539 21.501-16.608 32.566-25.042 2.7331-1.4005 5.1434-2.6817 7.837-4.0988 1.1191-1.0257 1.9549-1.9156 3.029-3.0248 1.7478-1.4075 3.2572-2.5955 5.1032-3.6664 5.8945 1.7202 7.3237-2.1438 8.8786-6.2961 0.73297-0.38092 1.2291-0.62079 1.96-1.0269 0.76196-0.7171 1.2891-1.2679 2.0464-1.8347 0.23022-0.015899 0.69092-0.044158 0.99206 0.10489 1.0372 2.0298 2.1656 3.8551 2.4404 5.8009 1.0967 7.7654 3.0217 9.5826 10.744 10.202 2.0069 0.16086 4.4488 0.69803 5.809 1.9905 3.5054 3.331 6.5985 7.1139 9.6959 10.849 1.8549 2.237 3.4081 4.7242 5.134 7.395 0.11261 0.68158 0.18811 1.0672 0.26361 1.4528 0 0-0.16412 0.19745-0.57977 0.34543-1.3809 1.1306-2.3463 2.1132-3.3116 3.0959z" style="fill: rgb(161, 39, 155);"/>
  <path d="m142.99 269.01c1.5e-5 0-0.012802-0.4592-0.077546-1.0229-0.70239-1.6912-1.3401-2.8187-1.9777-3.9461-3.1584-10.879-4.354-21.917-2.3384-33.44 1.4211 0.77571 2.3753 1.9984 3.6034 2.8027 5.0532 3.3096 9.9238 7.1318 16.437 7.0317 3.6007-0.055328 7.2097-0.041046 10.798-0.29849 2.6219-0.18816 5.3873-0.33501 7.7789-1.2823 3.0596-1.2119 5.4308-1.2496 8.4043 0.51395 1.8481 1.096 5.0987 1.4596 6.9911 0.58145 11.636-5.3994 23.264-1.5504 34.875-0.4348 1.4563 0.13994 3.1425 1.3718 4.0921 2.5891 2.107 2.701 4.5587 3.0291 7.513 2.0062-0.70844 7.6836-1.4169 15.367-2.3735 23.764-0.70277 2.1096-1.4282 3.4803-1.5662 4.9078-0.68605 7.0979-1.2288 14.21-1.7993 21.319-0.39126 4.876-1.5185 5.4682-6.3596 3.9965-2.3371-0.71042-4.8748-1.0089-7.3282-1.0442-8.9705-0.12894-17.959 0.22214-26.907-0.25226-2.7746-0.14712-5.9557-1.7937-8.0257-3.7383-2.5814-2.4251-4.4342-3.1682-7.1084-0.58939-3.0198 2.912-6.4474 2.9707-10.133 1.3144-1.6472-0.74026-3.4519-1.1261-5.1125-1.8413-1.1189-0.4819-2.1108-1.2588-3.1595-1.9038 0.75307-1.0062 1.4662-2.0454 2.2671-3.012 1.9583-2.3633 3.9571-4.6929 5.9397-7.0361l-1.119-1.0187c-0.57355 0.24637-1.2008 0.4118-1.7125 0.7514-6.1536 4.0847-7.4832 3.8062-12.583-1.1607-1.9603-1.9091-4.7077-3.01-7.0965-4.4791 0.01416-0.16943 0.028321-0.33887-0.094345-0.94031-0.34283-0.66373-0.55144-0.89307-0.76265-1.1201 0 0-0.10762-0.39883-0.26245-0.87839-0.37065-1.0323-0.58647-1.5851-0.80229-2.1379z" style="fill: rgb(161, 39, 155);"/>
  <path d="m551.01 464.02c-1.6888-2.3748-3.242-4.862-5.0969-7.099-3.0974-3.7354-6.1905-7.5183-9.6959-10.849-1.3602-1.2924-3.8021-1.8296-5.809-1.9905-7.7222-0.61896-9.6472-2.4361-10.744-10.202-0.27484-1.9459-1.4032-3.7712-2.2559-6.0749 4.4699-4.2036 9.0565-7.9843 13.919-11.953 8.8943-6.696 17.528-13.184 26.126-19.72 6.2067-4.7177 12.366-9.4975 18.769-13.988 4.7399 5.5926 9.4941 7.9757 13.92 4.6023 5.2498-4.0015 8.5644-4.3477 12.798 0.6246 1.2663 1.4873 4.6608 1.6208 5.28 3.1187 2.2321 5.3997 6.5048 5.5527 11.148 5.4869 8.0396-0.11392 14.478-3.2665 19.075-9.9562 1.352-1.9675 2.7988-2.9883 4.6611-0.5481-8.1572 8.7577-15.618 18.32-24.615 26.108-19.61 16.974-39.996 33.053-60.091 49.466-1.4028 1.1458-3.0154 2.0347-5.22 3.1169-1.1824 0.001282-1.6754-0.071197-2.1683-0.14368z" style="fill: rgb(161, 39, 155);"/>
  <path d="m447.95 214.16c-2.8187-6.8292-5.6374-13.659-8.4561-20.488-0.56345-1.365-0.98163-2.8143-1.7156-4.0805-3.8622-6.6637-4.027-9.1456 2.7314-12.251 9.2182-4.2361 19.21-6.7896 29.006-9.7821-1.6535 1.9682-3.5224 3.5788-5.2129 5.3589-2.1336 2.2469-4.5061 4.4016-6.0739 7.0166-1.8954 3.1615-1.2125 6.3526 2.5746 7.7114 3.4647 1.2431 4.5158 3.7017 5.6026 6.9125 0.7027 2.076 3.2102 4.7674 5.1368 4.9653 5.0939 0.52313 7.9096 2.7642 9.1328 7.5698 1.0298 4.0458 3.7935 6.1399 7.9384 6.3056 2.8093 0.11229 5.6463-0.1445 8.4334 0.13646 9.4791 0.95551 19.175-2.2275 28.522 1.5351 0.95935 0.38617 2.4227 0.29575 3.3611-0.16559 6.6659-3.277 13.047-0.62074 19.417 0.92544 1.3575 0.32947 2.2885 2.1879 3.5633 3.1459 1.4944 1.123 3.1497 2.0318 4.7352 3.0334 0.59857-1.9862 1.8254-4.0273 1.6581-5.9467-0.29968-3.4361-1.439-6.799-2.2274-10.192 8.0535 13.708 9.1129 28.488 6.2408 43.913-1.7668 0.672-3.4789 0.88011-4.2813 1.8449-4.2197 5.0732-6.4791 5.1706-12.232 1.6434-5.4822-3.3614-11.155-6.4945-18.263-4.0903-1.8384 0.6219-4.8536-0.55333-6.6472-1.8471-3.2534-2.3468-5.9076-2.818-8.7002 0.37064-1.8482 2.1103-3.9951 2.5722-6.0184 0.43872-3.7156-3.9179-6.8765-3.3479-10.628 0.22844-4.2881 4.0875-10.647 3.8603-13.943 0.84323-2.1375-1.9567-5.0258-3.6105-7.8304-4.2022-4.4032-0.929-6.714-2.9032-8.3603-7.2654-2.5636-6.7928-5.9511-13.347-9.6768-19.592-1.4-2.3467-3.4883-6.0628-7.7879-3.9951z" style="fill: rgb(161, 39, 155);"/>
  <path d="m448.07 214.51c4.1807-2.4193 6.269 1.2968 7.669 3.6435 3.7256 6.2451 7.1132 12.799 9.6768 19.592 1.6463 4.3622 3.9571 6.3364 8.3603 7.2654 2.8046 0.5917 5.6929 2.2455 7.8304 4.2022 3.2958 3.0171 9.6547 3.2442 13.943-0.84323 3.7518-3.5764 6.9127-4.1463 10.628-0.22844 2.0233 2.1335 4.1703 1.6716 6.0184-0.43872 2.7926-3.1886 5.4468-2.7174 8.7002-0.37064 1.7936 1.2938 4.8088 2.469 6.6472 1.8471 7.1074-2.4043 12.781 0.7289 18.263 4.0903 5.7527 3.5272 8.0122 3.4298 12.232-1.6434 0.80237-0.96477 2.5145-1.1729 4.003-1.556-0.42749 9.5408-3.0266 18.299-8.3022 26.85-2.1057 2.752-3.6911 5.0919-5.4803 7.264-1.0275 1.2474-2.2117 2.7896-3.6248 3.2232-6.4431 1.977-12.901 4.4365-19.525 5.1703-10.049 1.1131-20.243 1.1978-30.37 1.1236-2.3637-0.017304-5.4367-1.8888-6.8985-3.86-2.3588-3.1807-3.396-2.6349-6.076-0.34824-1.7241 1.471-6.1251 2.4259-7.402 1.343-5.3354-4.5244-12.537-8.1308-11.445-17.193 0.47205-3.9197-1.4108-6.755-5.5215-7.6882-0.17014-1.0261-0.34027-2.0522-0.38794-3.7434 2.0408-3.4138 2.4395-6.0002-0.6832-8.2106-2.7117-13.047-5.4234-26.093-8.2539-39.491z" style="fill: rgb(161, 39, 155);"/>
  <path d="m177.99 488.22c-24.582-18.821-49.164-37.643-73.609-56.838 3.4858 0.27936 7.2912 0.14426 10.082 1.761 4.7035 2.725 8.7633 6.5612 13.31 10.099 3.907-4.7712 7.1406-4.1043 10.372 0.10846 0.73418 0.95715 2.8986 1.8386 3.8369 1.4349 3.448-1.4833 6.6102-3.6144 9.9715-5.3215 2.5365-1.2883 5.1616-3.1274 7.8357-3.293 11.043-0.68372 22.12-0.82321 33.476-0.99091 10.672 7.4019 21.053 14.632 31.625 22.058 0.49338 0.39636 0.79497 0.59729 1.0717 0.78577-0.024887-0.012421-0.019714 0.042999 0.18057 0.2764 1.076 0.7468 1.9516 1.2602 2.8124 1.7514-0.014908-0.022217-0.038269 0.030945 0.16644 0.29388 1.8714 1.6383 3.497 3.0672 5.2115 4.3801 9.64 7.3821 19.301 14.736 28.586 22.193-2.2881-0.056397-4.6718 0.45801-6.0287-0.49286-2.9201-2.0462-4.8162-1.1491-7.5972 0.33798-2.0294 1.0851-5.074 0.46078-7.646 0.29294-3.0028-0.19595-5.9743-0.86371-8.977-1.0697-3.0765-0.21097-6.18-0.24487-9.2615-0.11548-4.5188 0.18976-9.2655-0.16244-13.465 1.1533-3.1788 0.99594-5.4411 1.5936-8.1755-0.54858-3.4911-2.735-7.5162-2.5313-10.502 0.30804-3.2322 3.0732-5.9716 2.6117-9.4178 0.94076-0.97612-0.4733-2.5548 0.29602-3.8571 0.49542z" style="fill: rgb(67, 226, 167);"/>
  <path d="m239.12 243.8c-2.9834 1.3322-5.4351 1.0042-7.542-1.6968-0.94962-1.2174-2.6358-2.4492-4.0921-2.5891-11.61-1.1156-23.239-4.9646-34.875 0.4348-1.8924 0.87814-5.1431 0.51459-6.9911-0.58145-2.9736-1.7636-5.3448-1.7258-8.4043-0.51395-2.3916 0.94731-5.157 1.0942-7.7789 1.2823-3.588 0.25745-7.197 0.24316-10.798 0.29849-6.5136 0.10007-11.384-3.7222-16.437-7.0317-1.2281-0.80435-2.1823-2.027-3.5201-3.2157-0.29927-1.2336-0.3408-2.3088-0.17203-3.9024 0.38524-1.4366 0.56015-2.3549 0.73506-3.2731-0.023056-0.77911-0.046128-1.5582 0.077026-2.8835 0.32866-0.75712 0.50442-0.97353 0.67351-1.1954 0.028793-0.74292 0.057586-1.4859 0.23564-2.7762 0.34381-0.78101 0.53336-1.0186 0.71788-1.2602 3.1594-6.1753 6.3187-12.351 9.8942-18.432 1.9951 0.40486 3.5789 0.98801 5.1521 0.96062 2.1053-0.036682 4.1934-0.65149 6.3047-0.8309 4.1976-0.35672 8.5844 0.073227 12.573-1.0056 8.0981-2.1905 15.887-3.1579 23.672 0.91652 3.1423 1.6445 6.3518 3.9029 9.6999 4.2498 6.0692 0.62886 12.274-0.18645 18.404 0.054123 2.6294 0.10318 5.502 0.84874 7.7562 2.1694 3.9839 2.3342 7.6976 3.4607 12.222 1.5331 1.8275-0.7787 4.1525-0.38983 6.2511-0.5323-4.576 13.171-9.1519 26.341-13.757 39.821z" style="fill: rgb(161, 39, 155);"/>
  <path d="m272.22 138.31c3.8144-3.5748 7.6269-2.0938 11.75-0.085174 2.2888 1.115 5.1311 1.3941 7.7437 1.4855 6.5523 0.22922 13.152-0.26834 19.663 0.31276 4.5306 0.40439 8.062 0.82252 9.9012-4.6123 0.52469-1.5505 3.4738-2.9146 5.4756-3.1966 3.9203-0.55223 7.9894 0.011337 11.935-0.43391 4.2449-0.479 8.3425-1.6732 8.3903-7.5654 2.2154 1.4283 4.4621 3.1772 6.5478 5.2085-1.906 1.0291-4.2294 1.3275-5.2459 2.639-1.1959 1.5428-1.2582 3.9642-1.8121 6.0045 3.0075 0.39564 6.015 0.79129 9.0226 1.1869-0.10159-1.8523-0.11038-3.716-0.33627-5.5531-0.15976-1.2991-0.61346-2.5621-0.93591-3.8412 23.41 23.229 42.994 49.071 54.872 80.808 0.098144 0.56836 0.16559 0.96533-0.20074 0.94476-3.179-1.6348-5.8269-4.0164-8.847-4.6647-3.6026-0.77344-5.4117-2.2822-6.6338-5.6651-1.5337-4.2456-5.0187-5.1922-8.1627-2.1933-3.2376 3.0882-5.5547 2.9674-8.111-0.61122-0.83054-1.1627-2.2454-1.9328-3.4551-2.7952-4.1617-2.9671-4.0312-4.4573-0.047699-7.8889 1.1289-0.97249 1.2249-3.144 1.7946-4.7655-1.869 0.20221-4.6553-0.29836-5.4441 0.73132-3.0147 3.9352-6.6538 3.923-10.749 2.8605-3.6933-0.95824-7.4153-1.8421-11.033-3.0361-1.3162-0.43439-2.6078-1.4743-3.5015-2.5713-5.5072-6.7592-12.464-8.9269-20.843-6.9205-5.1808-4.2855-10.049-9.0386-15.607-12.76-11.771-7.8794-23.903-15.22-36.129-23.023z" style="fill: rgb(67, 226, 167);"/>
  <path d="m178.25 488.41c1.0435-0.3895 2.6221-1.1588 3.5982-0.68552 3.4462 1.6709 6.1856 2.1324 9.4178-0.94076 2.9863-2.8394 7.0114-3.0431 10.502-0.30804 2.7344 2.1422 4.9967 1.5445 8.1755 0.54858 4.1994-1.3157 8.9462-0.9635 13.465-1.1533 3.0816-0.1294 6.185-0.09549 9.2615 0.11548 3.0027 0.20596 5.9742 0.87372 8.977 1.0697 2.5721 0.16785 5.6166 0.79221 7.646-0.29294 2.781-1.4871 4.6771-2.3842 7.5972-0.33798 1.3569 0.95087 3.7406 0.43646 6.2842 0.53394 0.9689 0.005249 1.3124 0.062866 1.8818 0.37317 12.154 10.384 24.083 20.516 36.196 30.912 1.7756 2.0658 3.3662 3.8667 4.9569 5.6675-0.34766 1.8134-1.0247 3.6357-0.97644 5.4385 0.11066 4.1395-1.4677 5.4558-5.4275 4.1838-2.8397-0.91223-5.6758-2.2752-8.5714-2.444-2.6452-0.15424-5.8668 0.30865-7.9573 1.7616-4.9863 3.4656-9.4512 7.6806-14.137 11.581-0.76489 0.63672-1.545 1.6544-2.3799 1.7211-1.5418 0.12305-3.1295-0.32819-4.6981-0.5401 0.4982-1.5684 0.62216-3.4578 1.6084-4.6076 0.84875-0.98962 2.7266-1.0394 4.0691-1.6745 3.0258-1.4315 3.2671-3.6894 0.68268-5.6829-4.1226-3.1799-9.9005-1.4644-11.831 3.394-0.90308 2.2728-2.1339 4.4153-3.4668 6.884-0.49376 0.042846-0.72379-0.19415-1.0945-1.041-1.0246-6.9242-2.1456-7.7438-9.9811-7.7814 0 0-0.076965-0.04242-0.23485-0.38617-2.37-1.7875-4.5822-3.2312-6.7943-4.675 0 0-0.042313-0.026612-0.15504-0.37341-1.7176-1.4194-3.3224-2.4921-4.9272-3.5648-12.74-9.2492-25.487-18.489-38.217-27.753-4.4259-3.2208-8.8095-6.4999-13.471-9.9425z" style="fill: rgb(67, 226, 167);"/>
  <path d="m531.05 416.04c-4.5865 3.7807-9.173 7.5614-13.944 11.616-0.18457 0.27393-0.64526 0.30218-1.1103 0.48361-0.99225 0.73276-1.5193 1.2841-2.0465 1.8354-0.49609 0.23987-0.99219 0.47974-2.039 0.99484-3.3343 2.1984-6.1178 4.1216-8.9013 6.0448-1.5095 1.188-3.0189 2.376-5.0451 3.922-1.3559 1.2461-2.1949 2.1341-3.0339 3.0222-2.4103 1.2812-4.8206 2.5625-7.9575 3.992-9.8738 0.62918-14.366 9.0371-22.169 12.374-1.8397-3.302-4.7758-2.8499-8.3657-2.2281-2.5551 0.44269-5.7725-0.51569-8.1297-1.8478-5.1886-2.9323-10.14-5.278-16.307-2.9666-3.2624 1.2227-7.2042 1.2442-8.3205-2.8284-0.9906-3.6143-0.51465-7.6305-0.68607-11.469 7.5742-5.8263 15.047-11.79 22.744-17.45 15.993-11.761 32.081-23.393 48.177-35.012 8.4596-6.1068 17.019-12.076 25.754-17.919-1.0989 6.1779-3.8912 10.606-10.128 13.015-7.3817 2.8513-8.7457 17.091-2.856 22.669 2.1307 2.0177 3.775 4.7764 4.9736 7.4917 1.3921 3.1534 3.137 5.6862 6.6125 3.8125 4.5657-2.4615 8.5856-1.4132 12.779 0.44928z" style="fill: rgb(161, 39, 155);"/>
  <path d="m467.96 58.098c16.06-4.3349 32.478-4.6394 48.918-3.9959 21.374 0.83657 42.2 4.4927 61.938 13.197 5.6017 2.4704 11.328 4.6574 17.03 7.5706-4.8063 8.4297-10.498 14.881-19.892 17.907-5.7682 1.8577-10.659 0.96371-15.903-0.68807-6.8524-2.1586-11.927-0.52074-15.354 4.6576-14.146-2.7335-27.936-5.3623-41.806-8.3104-0.3753-0.9073-0.62488-1.9768-0.97418-2.0104-4.6047-0.44331-8.6078-5.3993-13.872-1.7421-0.76083 0.52855-2.8332-0.59952-4.1892-1.2057-3.116-1.3931-6.549-4.6317-9.1546-4.0407-4.4113 1.0006-6.7373-0.54256-9.6193-3.0099-1.5284-1.3085-3.8038-1.8976-5.8425-2.4182-2.5653-0.65516-5.2912-0.70625-7.8287-1.4336-1.024-0.2935-2.3894-1.6765-2.4035-2.5824-0.014618-0.93819 1.2497-2.2145 2.2672-2.7644 1.0975-0.59305 2.5642-0.73465 3.8582-0.69475 8.261 0.25469 10.005-0.85403 12.829-8.4357z" style="fill: rgb(161, 39, 155);"/>
  <path d="m192.98 435.01c-11.064 0.33951-22.141 0.479-33.184 1.1627-2.6741 0.16562-5.2992 2.0048-7.8357 3.293-3.3613 1.7071-6.5234 3.8382-9.9715 5.3215-0.93828 0.40366-3.1027-0.47775-3.8369-1.4349-3.2316-4.2128-6.4652-4.8797-10.372-0.10846-4.5471-3.5374-8.6069-7.3735-13.31-10.099-2.7905-1.6167-6.5959-1.4816-10.291-2.0163-10.575-9.3442-21.387-18.261-30.878-28.413-10.646-11.388-20.096-23.893-30.002-36.376 2.8709-2.4389 4.5414-0.73309 6.3725 1.2583 3.0982 3.3693 6.0547 7.0206 9.697 9.7031 5.7811 4.2579 12.027 7.9 18.19 11.613 1.6437 0.99036 3.7701 1.9652 5.5572 1.7844 5.3353-0.53995 10.252-0.43338 14.318 3.7619 0.85058 0.8775 2.5111 1.8696 3.4671 1.6063 9.7687-2.691 21.784 1.7035 29.315-8.8766 5.1037 3.7831 9.9098 7.4016 14.889 11.223 0.92067 0.66489 1.6685 1.1268 2.6383 1.8292 0.5697 0.50174 0.9175 0.763 1.4567 1.2834 6.6762 5.0771 13.161 9.895 19.85 14.974 8.0672 6.0373 15.93 11.814 23.829 17.82 0.035492 0.22986 0.10168 0.69031 0.10168 0.69031z" style="fill: rgb(67, 226, 167);"/>
  <path d="m144.9 274.45c2.3975 1.1084 5.145 2.2092 7.1053 4.1184 5.0999 4.9669 6.4295 5.2454 12.583 1.1607 0.51166-0.3396 1.1389-0.50504 1.7125-0.7514l1.119 1.0187c-1.9825 2.3432-3.9814 4.6729-5.9397 7.0361-0.8009 0.96655-1.514 2.0058-2.2671 3.012 1.0487 0.64496 2.0406 1.4219 3.1595 1.9038 1.6606 0.71518 3.4654 1.101 5.1125 1.8413 3.6855 1.6563 7.1131 1.5977 10.133-1.3144 2.6742-2.5788 4.527-1.8357 7.1084 0.58939 2.07 1.9446 5.2511 3.5912 8.0257 3.7383 8.9477 0.4744 17.936 0.12332 26.907 0.25226 2.4533 0.035248 4.9911 0.33374 7.3282 1.0442 4.8412 1.4717 5.9684 0.87955 6.3596-3.9965 0.57046-7.1088 1.1133-14.221 1.7993-21.319 0.13797-1.4275 0.8634-2.7982 1.5501-4.4792 0.098617 17.194-0.20311 34.8 4.4608 51.756 3.7262 13.547 8.7243 26.785 13.829 39.898 3.2864 8.4422 7.7879 16.411 12.24 25.617-2.5378-1.8286-4.4422-3.1568-6.3006-4.5464-24.623-18.411-49.367-36.662-73.812-55.307-16.837-12.842-30.025-29.011-40.672-47.268-0.65982-1.1314-1.04-2.4259-1.5416-4.0052z" style="fill: rgb(161, 39, 155);"/>
  <path d="m548 143.71c-10.824-4.9451-21.621-9.737-33.422-12.272-16.591-3.5635-33.132-3.6286-49.676-0.78906-15.88 2.7257-31.043 7.7136-44.63 16.766-2.3337 1.555-4.2824 1.842-6.6342-1.0066-7.5558-9.1516-15.584-17.913-23.248-27.09 6.0056 0.70526 10.339-2.7011 14.978-5.2615 5.5268-3.0504 11.095-6.0254 16.727-8.6915 0.31903 0.96149 0.37369 1.8157 0.82199 2.1657 5.8242 4.5472 11.698 9.0315 17.586 13.496 0.36392 0.27594 0.96292 0.38567 1.4364 0.35116 4.8202-0.35145 8.3987 2.0329 12.246 4.621 3.795 2.5532 8.2979 4.5888 12.397-0.48494 2.0363-2.5203 4.8117-2.6416 7.4847-0.32743 0.77536 0.67123 1.9652 0.86375 3.3993 1.4547 1.1553-6.536 5.4347-6.236 10.307-5.9334 4.5756 0.28412 9.2162-0.664 13.837-0.8617 3.1518-0.13484 6.3222 0.20627 9.4782 0.11725 2.9442-0.083054 7.5681 0.57787 8.4753-0.90734 2.0051-3.2825 4.1895-3.5549 7.3472-3.5544 2.6305 4.65e-4 5.2894-0.56047 7.8852-1.1108 4.0742-0.86381 7.7493-5.091 12.401-1.1975 0.53967 0.45168 2.3322-0.14788 3.2783-0.70839 3.2385-1.9188 6.1411-1.2207 9.4432 0.13278 6.4973 2.6631 13.09 6.6867 20.505 1.4632 2.4023 1.6915 4.4904 3.2667 6.7942 5.0829 1.16 0.75757 2.1041 1.274 3.3222 1.9633 2.612 1.7699 4.95 3.3669 7.4881 5.2325 7.4825 8.712 14.765 17.156 21.724 25.709-5.6055-2.0898-11.43-3.5133-16.012-6.7154-4.2485-2.9693-7.8604-5.8009-13.373-4.833-2.2329 0.39201-4.8342 0.62904-6.8656-0.13417-6.3729-2.3945-12.268-5.5335-19.711-4.1694-2.6309 0.4821-5.7219-1.6056-8.4467 1.1517-2.2664 2.2934-4.8829 4.2407-7.3444 6.3412m-39.354-16.353c0.76938-0.21462 1.5388-0.42924 2.3081-0.64386-0.73752-0.98054-1.3571-2.1036-2.2765-2.8645-0.32294-0.26734-1.3812 0.3537-2.1037 0.56908 0.53287 0.89208 1.0657 1.7842 2.0721 2.9393m-20.475-1.5601c0.84878 0.30357 1.6976 0.60716 2.5464 0.91074 0.07547-0.39636 0.15097-0.79272 0.22644-1.1891-0.84418 0-1.6883 0-2.7728 0.27835z" style="fill: rgb(161, 39, 155);"/>
  <path d="m457.33 266.42c4.1695 0.46374 6.0523 3.299 5.5803 7.2187-1.0913 9.0618 6.1099 12.668 11.445 17.193 1.277 1.0829 5.6779 0.12805 7.402-1.343 2.6801-2.2867 3.7173-2.8325 6.076 0.34824 1.4618 1.9712 4.5348 3.8427 6.8985 3.86 10.128 0.074219 20.321-0.010468 30.37-1.1236 6.6243-0.73383 13.082-3.1933 19.525-5.1703 1.4131-0.43359 2.5973-1.9758 3.6248-3.2232 1.7892-2.1721 3.3747-4.5121 5.2966-6.9771-4.2368 7.32-8.1722 15.24-13.321 22.271-12.957 17.695-30.965 29.787-49.255 42.364-4.0008 0.849-7.3953 2.3682-10.651 2.1141-6.5384-0.51022-13.06-1.7349-19.459-3.2236-1.8844-0.43835-4.4855-2.5583-4.7724-4.2453-1.0345-6.0842-3.1396-12.089-0.68176-18.591 1.0751-2.8442-0.40463-6.6542-0.72421-10.026 0.16699-0.71826 0.33402-1.4366 0.79944-2.7491 3.6683-4.8714 2.6993-9.5095 1.4284-14.173 0.11969-8.0183 0.23941-16.037 0.41797-24.524z" style="fill: rgb(161, 39, 155);"/>
  <path d="m424 496.94c6.0483 2.2052 7.7061 7.4998 8.7073 12.973 0.81683 4.4658 3.2035 6.247 7.5561 6.0862 3.3227-0.12274 6.7605 0.48303 9.9473-0.18646 2.615-0.54938 4.9554-2.4643 7.3807-3.839 2.0769-1.1772 4.041-3.3551 6.1612-3.4962 5.2564-0.34994 10.574 0.21042 15.866 0.40863 1.6297 0.061035 3.5497 0.72824 4.8382 0.098175 5.6114-2.7441 11.003-5.9336 16.55-8.8145 2.3163-1.2028 4.8226-2.0398 7.6236-3.0714-2.5206 2.4515-5.3086 5.0807-8.3423 7.3868-19.323 14.689-39.005 28.927-57.951 44.086-12.023 9.6203-22.975 20.58-34.426 30.918-0.4487 0.40503-1.0919 0.59454-2.7123 1.4449-0.5108-30.538-9.5183-58.034-23.866-84.034 3.5856 4.1811 7.167 8.3954 10.27 12.937 3.4857 5.1018 5.8947 5.9331 11.256 2.8814 1.4294-0.81363 2.7365-1.8419 4.3757-2.7382 5.8646-2.0348 10.147-5.5751 12.999-11.209 1.4309-0.73367 2.5981-1.2825 3.7653-1.8313z" style="fill: rgb(161, 39, 155);"/>
  <path d="m556.03 205.64c0.83624 3.6197 1.9756 6.9826 2.2753 10.419 0.16736 1.9194-1.0595 3.9604-1.6581 5.9467-1.5855-1.0017-3.2408-1.9105-4.7352-3.0334-1.2748-0.95799-2.2057-2.8165-3.5633-3.1459-6.3707-1.5462-12.752-4.2024-19.417-0.92544-0.93842 0.46133-2.4017 0.55176-3.3611 0.16559-9.3478-3.7626-19.043-0.57956-28.522-1.5351-2.787-0.28096-5.6241-0.02417-8.4334-0.13646-4.1449-0.16568-6.9087-2.2598-7.9384-6.3056-1.2231-4.8056-4.0389-7.0467-9.1328-7.5698-1.9265-0.19786-4.4341-2.8892-5.1368-4.9653-1.0868-3.2109-2.1379-5.6694-5.6026-6.9125-3.787-1.3588-4.47-4.5499-2.5746-7.7114 1.5678-2.6151 3.9403-4.7697 6.0739-7.0166 1.6904-1.7801 3.5593-3.3907 5.5128-5.3487 0.62692-0.3208 1.09-0.36943 2.1898-0.3483 2.0827-0.27153 3.5288-0.61279 4.9749-0.95404 0.18896-0.03978 0.37793-0.079559 1.0358-0.16612 0.46893-0.046769 0.83765-0.042832 0.83765-0.042832 0.84039 0.019684 1.6808 0.039368 3.1032 0.037018 0.58203-0.022018 0.90701-0.036713 0.90701-0.036713 2.4406 0.028458 4.8811 0.0569 8.0448 0.17322 1.819 0.028717 2.9148-0.030441 4.0106-0.0896 1.4214-0.025726 2.8429-0.051437 4.8373 0.045228 1.1917 0.23054 1.8103 0.33871 2.4289 0.44687 0.40372 0.14391 0.8074 0.28783 1.7076 0.67532 1.4174 0.29059 2.3383 0.33758 3.2592 0.3846 0.41223 0.11848 0.82446 0.23697 1.7036 0.53328 1.083 0.26407 1.6991 0.35033 2.3152 0.43657 0.4071 0.1058 0.81421 0.21161 1.7275 0.48927 0.75726 0.36308 1.009 0.55339 1.2615 0.74277 0.40784 0.036484 0.81574 0.072967 1.7359 0.25528 0.78125 0.34276 1.05 0.53975 1.3188 0.73682 6.0682 3.28 12.136 6.5601 18.704 10.144 0.76111 0.49939 1.0269 0.68883 1.2968 0.8725 0.82349 0.86537 1.647 1.7308 2.6949 3.2152 0.68164 3.9953 2.5527 5.8291 6.0151 5.9266 0 0 0.053406-0.017242 0.17712 0.2933 1.0601 1.0696 1.9965 1.8286 2.9328 2.5876 0 0 0.062866-0.015487 0.10297 0.36682 0.98761 1.8215 1.9351 3.2607 2.8825 4.6999 0.27808 0.13365 0.5329 0.30237 1.0679 0.85866 0.49164 0.60886 0.677 0.86722 0.85956 1.1276 0 0 0.034791 0.47913 0.20117 0.88916 0.34741 0.63524 0.53113 0.85826 0.71747 1.0791 0 0 0.070678 0.48976 0.258 0.90959 0.3797 0.65082 0.57507 0.87924 0.7735 1.1051 0 0 0.083069 0.45497 0.13092 0.6812z" style="fill: rgb(161, 39, 155);"/>
  <path d="m643.42 385.31c-2.1854-2.2806-3.6322-1.2598-4.9842 0.7077-4.5969 6.6897-11.035 9.8423-19.075 9.9562-4.643 0.065796-8.9157-0.087219-11.148-5.4869-0.6192-1.4979-4.0137-1.6314-5.28-3.1187-4.2335-4.9723-7.5481-4.6261-12.798-0.6246-4.4258 3.3734-9.1799 0.9903-13.744-4.8712 4.1696-4.645 8.3858-8.7597 12.868-13.074 10.094-11.067 19.922-21.935 30.056-32.982 8.6282-5.0775 12.358-3.6642 14.849 5.3376 0.26648 0.96271 0.2666 2.1039 0.80994 2.8611 0.8645 1.2052 2.0824 2.157 3.1508 3.2159 0.90057-1.251 2.1252-2.3884 2.6144-3.7836 0.53375-1.5225 0.10333-3.38 0.6239-4.911 0.42304-1.2439 1.6305-2.2209 2.49-3.3163 0.9754 0.77692 1.9647 1.5372 2.9232 2.3344 1.7064 1.4193 3.1984 3.648 5.1306 4.1284 3.9482 0.98148 7.2621 2.0809 8.6995 6.4054 0.29559 0.88944 1.9926 1.3131 3.0437 1.9515 0.5708-1.057 1.5764-2.0887 1.6395-3.1752 0.32806-5.6536 1.9872-6.8973 7.8916-5.5541-7.8773 15.913-17.935 30.361-29.761 43.999z" style="fill: rgb(161, 39, 155);"/>
  <path d="m620.07 151.96c-7.2825-8.4435-14.565-16.887-21.703-25.721 6.959 2.2438 14.016 4.4075 20.473 7.735 2.7301 1.4068 4.0837 2.6685 6.5465 0.028122 2.4491-2.6257 5.1345-1.8026 7.3265 0.61446 1.104 1.2174 1.6688 3.0533 2.9429 3.9427 0.893 0.6234 3.1552 0.69191 3.8093 0.027313 4.9871-5.067 9.7289-10.375 14.547-15.609 1.5793 1.78 3.1587 3.5601 4.6027 5.8249-3.8662 3.08-7.5972 5.6753-11.909 8.675 4.1965 0.75365 7.668 0.60178 10.266 2.0342 3.4746 1.9157 6.1526 1.9719 9.0432-0.51949 6.4691 6.9054 10.212 15.297 13.248 24.861 1.2631 2.872 2.4321 5.0085 3.6013 7.1449 0 0 0.074951 0.058075 0.2052 0.31662 0.32367 0.71767 0.51709 1.1768 0.71051 1.6359 0.16034 0.79503 0.32068 1.5901 0.37579 2.7503-0.31195 0.59601-0.51856 0.82683-0.72522 1.0576 0.38904 0.1651 0.77814 0.3302 1.1672 0.4953 0.27655 0.46199 0.5531 0.92398 0.9281 1.9282 0.58557 3.3071 1.0727 6.0718 1.159 8.855-2.3723 0.73131-5.0114 0.87396-6.1949 2.2598-4.219 4.9399-9.5491 5.2162-15.351 4.9958-4.0533-0.15399-8.1306 0.4433-12.199 0.46934-1.1802 0.007553-2.3376-0.91434-3.5544-1.2065-2.4077-0.57819-4.8495-1.0144-7.4184-1.8466-1.3784-2.8086-2.6157-5.2799-3.9366-8.1098-1.7234-4.1462-3.0306-8.1248-5.0732-11.681-4.0828-7.1085-8.5687-13.985-12.888-20.958z" style="fill: rgb(161, 39, 155);"/>
  <path d="m653.84 122.69c-4.6412 5.5202-9.383 10.829-14.37 15.896-0.65411 0.6646-2.9163 0.59608-3.8093-0.027313-1.2741-0.88937-1.8389-2.7253-2.9429-3.9427-2.192-2.417-4.8774-3.2402-7.3265-0.61446-2.4628 2.6404-3.8164 1.3787-6.5465-0.028122-6.4572-3.3275-13.514-5.4912-20.673-8.0034-2.6826-1.4751-5.0206-3.0721-7.8805-5.0567-1.4446-0.92158-2.3674-1.4557-3.2902-1.9898-2.088-1.5751-4.176-3.1503-6.8153-5.0893-12.079-5.9034-23.606-11.443-35.134-16.982 3.0712-5.283 8.1462-6.9209 14.999-4.7623 5.2436 1.6518 10.135 2.5458 15.903 0.68807 9.3943-3.0256 15.086-9.4769 20.116-17.609 21.989 9.6837 38.194 26.704 54.826 43.175 1.1424 1.1313 1.8553 2.6963 2.9449 4.3466z" style="fill: rgb(161, 39, 155);"/>
  <path d="m253.06 203.68c-2.2823 0.43704-4.6073 0.048172-6.4348 0.82687-4.5239 1.9276-8.2377 0.8011-12.222-1.5331-2.2542-1.3207-5.1268-2.0662-7.7562-2.1694-6.1303-0.24057-12.335 0.57474-18.404-0.054123-3.3481-0.34691-6.5576-2.6052-9.6999-4.2498-7.785-4.0744-15.573-3.107-23.672-0.91652-3.9884 1.0788-8.3751 0.6489-12.573 1.0056-2.1114 0.17941-4.1995 0.79422-6.3047 0.8309-1.5732 0.02739-3.1569-0.55576-4.8612-1.1386-0.094391-0.44022-0.063569-0.60889 0.3156-1.1259 1.4171-1.5547 2.4858-2.7611 3.5546-3.9675 0.53391-0.59435 1.0678-1.1887 2.1951-2.0449 3.9885-0.87856 6.7698-2.0907 6.4565-6.3052 0 0 0.10486-0.089279 0.40056-0.19353 0.84433-0.61559 1.393-1.1269 1.9416-1.6382 0.16217-0.26741 0.3526-0.51289 0.91693-1.0258 0.57176-0.47015 0.79626-0.65295 1.0191-0.83775 0.2063-0.012452 0.4126-0.024903 1.2758-0.10526 2.0343-1.082 3.4117-2.0962 4.789-3.1103 4.6822-2.2468 9.2734-4.713 14.064-6.6985 13.554-5.6179 27.804-3.3987 41.797-3.0811 12.816 0.29091 24.402 5.2727 35.523 11.346 3.3155 1.8108 3.483 3.6404 1.1864 6.7023-4.6694 6.2253-8.9079 12.774-13.508 19.484z" style="fill: rgb(161, 39, 155);"/>
  <path d="m129.91 387.02c-7.2335 10.745-19.249 6.3503-29.018 9.0413-0.95598 0.26337-2.6165-0.72876-3.4671-1.6063-4.0665-4.1953-8.9831-4.3018-14.318-3.7619-1.7871 0.18082-3.9135-0.79404-5.5572-1.7844-6.1632-3.7134-12.409-7.3556-18.19-11.613-3.6422-2.6826-6.5987-6.3339-9.697-9.7031-1.8311-1.9914-3.5016-3.6972-6.5657-1.5295-5.2788-8.0677-10.411-16.263-15.27-24.617-2.1511-3.6985-3.75-7.7181-5.5461-12.13 3.2864-3.0882 6.4345-1.9756 8.2711 0.81274 2.5248 3.8333 5.8784 5.0408 10.044 5.3308 4.4427 0.30924 8.3552 1.3628 10.977 5.6962 0.76132 1.2582 3.7401 1.832 5.5807 1.627 2.8074-0.31268 4.404 0.11426 6.2251 2.5953 1.532 2.087 4.3926 3.591 6.9662 4.4376 4.9782 1.6376 10.131 2.8222 15.283 3.8268 3.7801 0.73706 7.6745 0.8877 11.778 1.4979 5.3661 5.4233 10.472 10.648 15.746 16.123 1.0752 1.0215 1.9825 1.7937 3.0792 2.8212 1.007 0.91928 1.8247 1.5832 2.8379 2.5038 3.7437 3.6487 7.2919 7.0407 10.84 10.433z" style="fill: rgb(67, 226, 167);"/>
  <path d="m422.01 105.02c-5.5503 3.0077-11.119 5.9828-16.645 9.0331-4.6389 2.5603-8.9727 5.9667-15.152 4.9703-5.8348-5.0998-11.386-10.101-16.673-15.367-0.49228-0.49028 0.23968-3.3477 1.1554-3.9369 8.5813-5.5212 17.185-11.039 26.067-16.052 8.0125-4.5224 16.129-9.0531 24.658-12.42 10.991-4.3388 22.428-7.5509 33.694-11.181 2.6452-0.85239 5.3768-1.4366 8.4567-2.0577-2.4354 7.6682-4.1799 8.7769-12.441 8.5222-1.294-0.039901-2.7606 0.1017-3.8582 0.69475-1.0175 0.54983-2.2818 1.8262-2.2672 2.7644 0.014099 0.90583 1.3795 2.2888 2.4035 2.5824 2.5375 0.7273 5.2634 0.7784 7.8287 1.4336 2.0386 0.52064 4.314 1.1098 5.8425 2.4182 2.882 2.4673 5.208 4.0105 9.6193 3.0099 2.6056-0.59103 6.0385 2.6476 9.1546 4.0407 1.356 0.60622 3.4283 1.7343 4.1892 1.2057 5.2646-3.6572 9.2676 1.2988 13.872 1.7421 0.3493 0.033638 0.59888 1.1031 0.50897 2.0363-7.1772 0.23136-14.043-0.58049-20.746 0.13365-20.742 2.2098-40.708 7.5746-59.667 16.428z" style="fill: rgb(161, 39, 155);"/>
  <path d="m378.05 404.03c-11.688 13.172-23.367 26.353-35.074 39.507-2.0077 2.2559-4.0315 1.6722-6.0623-0.12909-11.45-10.156-22.9-20.314-34.407-30.406-2.8862-2.5314-3.0443-4.3847-0.003693-7.2389 8.1058-7.6087 15.839-15.614 24.234-23.536 0.99838 2.1087 1.4828 4.2911 2.075 6.9586 0.94165-0.3927 2.3315-0.51892 2.7844-1.2365 2.5128-3.9809 5.7062-3.2103 9.59-2.3904 5.4494 1.1505 11.101 1.5631 16.685 1.7844 4.4641 0.17682 8.8227 0.38663 11.719 4.2053 3.033 3.9985 5.6565 8.3076 8.459 12.481z" style="fill: rgb(67, 226, 167);"/>
  <path d="m7.9724 286.03c-1.3168-9.8194-3.2631-19.606-3.7706-29.468-0.49199-9.5591 0.49455-19.194 1.3383-29.182 3.8287-0.40089 5.7545 1.1996 7.5255 4.1108 1.4947 2.457 4.2115 4.3721 6.7543 5.9268 2.0606 1.2599 4.6423 1.717 7.0364 2.3709 4.1599 1.1362 6.3663 3.8141 7.0397 8.0385 0.58973 3.6995 6.9653 10.298 10.524 10.399 1.3003 0.036895 2.7751-1.8246 3.9569-3.0294 1.2359-1.2598 2.2152-2.7712 3.3747-3.7486 1.1576 7.1126 2.247 13.801 3.3555 20.893 2.3869 8.9503 4.7548 17.497 6.9725 26.423-3.6412 9.0547-4.686 10.44-12.727 7.4377-4.8229-1.8005-9.0492-5.0379-14.606-5.4083-3.4306-0.22858-6.8598-1.3617-10.151-2.493-2.2379-0.76926-5.4671-1.7751-6.1094-3.4819-1.9466-5.1729-5.6662-7.4751-10.514-8.7881z" style="fill: rgb(67, 226, 167);"/>
  <path d="m302.93 88.641c-8.325 0.14667-16.807-0.29919-25.279-0.14654-28.574 0.51488-54.982 9.2995-80.451 21.524-2.3908 1.1475-4.8518 2.1486-7.6238 2.9174 0.83505-1.6724 2.0137-3.0446 4.1156-5.4913-5.0106-2.2838-9.9979-4.557-15.273-6.9611-6.8167 3.056-12.209-0.35525-14.428-9.7871-2.4147 0.41869-4.8497 0.84088-7.1593 0.91639 5.5089-2.5521 10.892-4.7575 16.497-7.011 0.50662-0.16577 0.754-0.3381 1.3068-0.58448 1.8402-0.59335 3.337-1.1672 5.2118-1.7772 27.421-8.1256 54.968-12.083 83.238-10.232 3.2729 0.21423 6.5646 0.1416 9.8475 0.20197 9.9479 5.3711 19.896 10.742 29.996 16.431z" style="fill: rgb(67, 226, 167);"/>
  <path d="m19.758 165.82c5.7342-15.455 15.033-28.719 25.374-41.35 0.8282-1.0116 1.4512-2.1912 2.5727-3.2028 0.70055 1.6889 1.3915 3.3289 1.2299 4.8802-0.86437 8.2983 4.6686 14.452 12.956 12.306 5.7483-1.4885 10.737-0.94066 15.818 0.71756 2.6927 0.87863 4.9052 3.2287 7.2473 5.2465-1.0908 1.8334-2.0283 3.3843-3.1085 4.8284-8.7435 11.689-15.897 24.235-20.799 38.344-1.4967 3.6487-2.8609 7.032-4.5569 10.499-0.80437 0.24026-1.3429 0.30003-1.7392 0.56924-3.6786 2.4991-6.2991 3.2574-7.5387-2.6033-0.35581-1.6822-3.7736-2.9688-6.0022-3.9477-4.0016-1.7576-8.3437-2.8035-12.197-4.812-2.3988-1.2504-3.9349-4.0761-6.2619-5.5627-3.4321-2.1925-3.9525-4.6879-1.9-7.9249 1.9158-3.0213 1.5169-5.6325-1.0949-7.9868z" style="fill: rgb(67, 226, 167);"/>
  <path d="m272.66 71.975c-3.0052 0.17435-6.2969 0.24698-9.5698 0.032746-28.27-1.8505-55.817 2.1068-83.548 9.9854-6.4297-1.4007-12.147-3.4192-17.918-3.5842-8.4702-0.2423-16.708 3.3011-25.534 1.2183-5.3483-1.2622-11.17-0.43732-16.766-0.7738-1.9005-0.11428-3.7598-0.91316-5.6379-1.3992 0.75014-2.1831 1.1136-4.6286 2.3646-6.4717 1.1388-1.6778 3.2414-2.7015 4.9192-4.0135 0 0 0.033211 0.004349 0.19294-0.12962 0.38321-0.32957 0.59942-0.53291 0.80834-0.74399 9.0327-2.8493 17.937-6.2526 27.136-8.3851 8.4467-1.9582 17.211-2.5471 26.754-3.639 9.4027 0.03954 17.886-0.021171 26.37-0.081878 24.498 1.5136 47.743 7.9777 70.428 17.986z" style="fill: rgb(67, 226, 167);"/>
  <path d="m364.96 308.89c0.047028-0.72931 0.094086-1.4586 0.32391-2.7328 0.24704-1.4578 0.31128-2.3708 0.37552-3.2837 0.13498-0.72449 0.26996-1.449 0.67957-2.7406 0.4714-2.4134 0.66818-4.2596 0.86496-6.1059-0.030823-0.45633-0.061646-0.91266 0.053588-1.8896 0.24204-1.4379 0.33798-2.3553 0.43396-3.2726 1.2045-19.713 0.34363-39.192-6.5312-58.427 1.5211 1.9042 3.1112 4.1887 4.4409 6.6158 1.5454 2.8208 2.1405 7.2106 4.4301 8.3552 4.6633 2.3315 6.9644 5.7163 8.777 10.178 1.1758 2.8941 2.4493 6.7773 4.8089 7.9566 5.6624 2.8301 10.267 7.2384 15.733 9.9494 4.2241 2.0951 9.7379 1.6023 14.682 2.2283 4.0542 0.51328 5.7782-1.4288 5.9553-5.3893 0.13998-3.1309 0.6868-6.2435 1.0529-9.3642 0.17108 8.9146 0.38159 17.829 0.48041 26.744 0.02005 1.8101-0.38092 3.6248-0.86063 6.1301-0.99722 5.5785-1.7216 10.464-2.446 15.35 0 0-0.16019 0.41354-0.47543 0.84-2.6808 2.3938-3.925 7.1495-8.1188 4.9331-7.7679-4.1052-14.929-2.3638-22.518 0.51999-7.8207 2.972-16.054 5.646-22.379-3.2198-0.087524-0.12265-0.28287-0.16834-0.42789-0.24994-0.052734-0.45804-0.10544-0.91608-0.042541-1.8937 0.31613-0.754 0.51324-0.99124 0.70703-1.2313z" style="fill: rgb(67, 226, 167);"/>
  <path d="m619.01 336c-9.8284 10.868-19.657 21.736-30.104 32.864-1.5479 0.60666-2.6783 0.72324-3.3739 1.3347-7.4874 6.5816-16.478 9-26.132 9.307-5.5416 0.17618-11.425 1.0343-14.677-5.603-0.68512-1.3984-3.2254-2.3304-5.052-2.6373-4.1019-0.6893-5.8101-2.5825-5.0884-6.8172 0.69989-4.1057 1.737-7.8858 6.972-7.0461 7.3279 1.1754 7.5665-2.2329 6.3239-7.7967-0.289-1.2939-0.7312-2.5536-1.1029-3.8291 8.8817-9.1383 17.763-18.277 27.086-27.254 1.6724 1.6814 2.6697 3.5109 4.1841 4.6571 3.1364 2.3738 5.5334 4.3432 1.4565 8.1606-0.83295 0.77988-0.32568 3.8141 0.50861 5.2664 0.57025 0.99286 3.3502 1.9032 4.1583 1.3671 3.4912-2.316 7.0953-4.7832 9.7376-7.9609 2.3357-2.809 3.2394-2.3254 5.1781 0.059784 1.2613 1.5518 3.1396 3.3358 4.931 3.5706 3.7631 0.49341 6.589 1.3066 6.1593 6.0854 3.5998-2.8174 6.7252-5.2636 9.7659-7.378-0.36664 1.4376-0.6485 2.5434-0.93036 3.6493z" style="fill: rgb(161, 39, 155);"/>
  <path d="m62.23 298.39c-2.3679-8.5472-4.7359-17.094-6.9979-26.383 0.94723-6.3787 4.2817-9.1022 9.7896-10.544 3.7603-0.98419 7.0465-3.7445 10.587-5.6311 0.80186-0.42729 1.7741-0.71284 2.6771-0.7385 2.5724-0.073074 5.1741 0.25736 7.7186-0.00856 3.2977-0.34462 6.1657-0.59738 7.6763 3.3635 0.45576 1.195 2.2825 1.8672 4.1674 3.3006 0.41726-6.262 0.76182-11.433 1.1064-16.604 1.888 21.447 7.9956 41.564 19.279 60.614 0.46747 0.70636 0.61578 0.94876 0.76416 1.1911 0.31482 0.48538 0.62964 0.9708 0.93623 1.8565 0.37117 0.93716 0.75056 1.474 1.13 2.0108-7e-6 0 0.04937 0.075592 0.16287 0.26727 0.31474 0.41373 0.51162 0.63956 0.70418 0.86914 0.66351 0.79324 1.327 1.5865 1.8211 2.7138-6.6354-0.72534-13.082-1.9361-19.577-2.7659-2.4272-0.31009-4.9752 0.46945-7.4545 0.3786-2.0298-0.074341-4.569-0.061554-5.9575-1.2078-3.9908-3.2945-10.108-3.9609-14.68-1.0175-0.72917 0.46942-2.0378 0.88657-2.5961 0.54327-0.5993-0.36844-0.83091-1.657-0.85636-2.5544-0.031105-1.0963 0.31921-2.2035 0.46999-3.1003-2.4755-0.36652-4.6527-0.68884-6.8847-1.0506-0.05484-0.03949-0.11067-0.16257-0.21124-0.46515-0.85441-1.3154-1.6083-2.3281-2.5461-3.5468-0.5321-0.63422-0.88022-1.0625-1.2283-1.4908z" style="fill: rgb(67, 226, 167);"/>
  <path d="m378.25 403.85c-3.0021-3.9962-5.6257-8.3053-8.6587-12.304-2.8965-3.8187-7.255-4.0285-11.719-4.2053-5.5849-0.22122-11.236-0.63388-16.685-1.7844-3.8838-0.81995-7.0772-1.5905-9.59 2.3904-0.45297 0.71756-1.8428 0.84378-2.7844 1.2365-0.59219-2.6675-1.0767-4.8499-1.8231-7.1704 7.0517-10.592 14.458-20.983 21.626-31.535 2.3226-3.4192 4.0217-7.262 6.4444-10.921 2.2519 2.3129 4.4364 4.4424 5.7772 7.012 1.4136 2.7092 2.9304 2.7131 5.5995 2.1929 2.711-0.52832 5.67-0.11313 8.4712 0.25919 2.0912 0.27795 4.106 1.6664 6.1515 1.659 8.7041-0.031403 17.407-0.3985 26.11-0.64304-4.376 9.8038-8.2524 19.873-13.277 29.332-4.489 8.4511-10.245 16.229-15.642 24.481z" style="fill: rgb(67, 226, 167);"/>
  <path d="m19.501 166.06c2.8681 2.1113 3.267 4.7224 1.3513 7.7438-2.0525 3.237-1.532 5.7324 1.9 7.9249 2.3271 1.4866 3.8631 4.3123 6.2619 5.5627 3.8531 2.0085 8.1952 3.0544 12.197 4.812 2.2286 0.97888 5.6464 2.2655 6.0022 3.9477 1.2396 5.8607 3.8602 5.1025 7.5387 2.6033 0.39626-0.26921 0.93479-0.32898 1.7583-0.17944-0.064983 2.6029-0.48093 4.8994-1.0651 7.5478-1.2456 10.225-2.3229 20.098-3.4673 30.433-0.14285 5.1638-0.21871 9.8648-0.29457 14.566-1.0915 1.4014-2.0707 2.9129-3.3066 4.1727-1.1819 1.2047-2.6566 3.0663-3.9569 3.0294-3.5589-0.10095-9.9345-6.6991-10.524-10.399-0.67342-4.2244-2.8798-6.9023-7.0397-8.0385-2.3941-0.65392-4.9758-1.1111-7.0364-2.3709-2.5429-1.5547-5.2596-3.4697-6.7543-5.9268-1.771-2.9112-3.6968-4.5117-7.3975-4.5164-0.38622-1.0538-0.39395-2.0883-0.048246-3.4747 4.6915 0.27637 5.8414-1.643 4.0711-5.3627-0.87892-1.8467-2.3382-3.4172-3.535-5.1127 2.4277-16.115 6.4904-31.773 13.346-46.963z" style="fill: rgb(67, 226, 167);"/>
  <path d="m620.03 332.02c-3.1255 2.4462-6.2509 4.8923-9.8507 7.7097 0.42969-4.7787-2.3962-5.5919-6.1593-6.0854-1.7913-0.23486-3.6697-2.0189-4.931-3.5706-1.9387-2.3852-2.8424-2.8688-5.1781-0.059784-2.6423 3.1777-6.2465 5.6449-9.7376 7.9609-0.80804 0.53607-3.588-0.37424-4.1583-1.3671-0.83429-1.4523-1.3416-4.4866-0.50861-5.2664 4.0768-3.8174 1.6798-5.7867-1.4565-8.1606-1.5144-1.1462-2.5117-2.9757-3.8809-4.8072 9.0073-13.759 17.683-27.458 22.554-43.165 0.58826-1.8969 0.96527-3.8593 1.8666-5.7583 1.9363 2.7705 2.8813 7.1891 5.0647 7.923 5.9817 2.0107 10.915 5.8491 16.444 8.1768 9.3469 3.935 9.7813 3.0523 9.9145 13.258 0.053711 4.1136 1.2289 6.5663 5.8478 5.5478-5.3309 9.4597-10.581 18.562-15.831 27.664z" style="fill: rgb(161, 39, 155);"/>
  <path d="m62.08 298.76c0.49835 0.050018 0.84646 0.47833 1.4606 1.4332 1.0322 1.5273 1.7984 2.528 2.5646 3.5287-7e-6 0 0.055825 0.12308 0.07956 0.3642-0.06041 0.77652-0.14456 1.3119-0.10275 2.0067 0.29548 0.36923 0.46619 0.57803 0.69902 1.1677 5.7438 10.194 11.427 20.005 17.262 30.117 4.4709 6.0535 8.7897 11.807 13.108 17.561-3.8435-0.41202-7.7379-0.56265-11.518-1.2997-5.1522-1.0046-10.305-2.1892-15.283-3.8268-2.5736-0.84659-5.4342-2.3505-6.9662-4.4376-1.8211-2.481-3.4177-2.908-6.2251-2.5953-1.8406 0.20499-4.8194-0.36874-5.5807-1.627-2.622-4.3335-6.5345-5.387-10.977-5.6962-4.1653-0.28998-7.5189-1.4975-10.044-5.3308-1.8366-2.7884-4.9846-3.9009-8.463-1.0977-3.7576-10.082-7.3178-20.401-10.757-30.76-1.2542-3.7782-2.2196-7.6523-3.3408-11.862 4.8236 0.93372 8.5432 3.2358 10.49 8.4088 0.64227 1.7068 3.8715 2.7126 6.1094 3.4819 3.2909 1.1313 6.7202 2.2644 10.151 2.493 5.5569 0.37033 9.7832 3.6078 14.606 5.4083 8.0413 3.002 9.0861 1.617 12.727-7.4377z" style="fill: rgb(67, 226, 167);"/>
  <path d="m619.94 332.35c5.3349-9.4337 10.585-18.536 16.081-28.309 1.1794-3.1144 2.1134-5.558 3.4089-8.0654 2.4901-2.4521 4.6187-4.8403 7.0724-7.5934 0.66156 1.1495 1.6129 2.3032 2.0348 3.6258 1.4898 4.6693 4.1248 6.2881 9.0846 4.7279 1.9058-0.59958 4.8942-0.10098 6.4818 1.0985 3.8057 2.8753 7.9352 2.4282 12.205 3.0118 7.2255 0.98773 11.841-1.2056 14.584-7.7842-1.8847 6.9581-3.2881 14.094-5.7716 20.831-3.3688 9.1385-7.5648 17.972-11.673 27.179-6.1714-1.1008-7.8305 0.14285-8.1586 5.7964-0.06311 1.0865-1.0687 2.1182-1.6395 3.1752-1.0511-0.6384-2.7481-1.062-3.0437-1.9515-1.4374-4.3245-4.7513-5.424-8.6995-6.4054-1.9322-0.48035-3.4242-2.7091-5.1306-4.1284-0.9585-0.79724-1.9478-1.5575-2.9232-2.3344-0.8595 1.0954-2.067 2.0724-2.49 3.3163-0.52057 1.5309-0.090149 3.3885-0.6239 4.911-0.4892 1.3952-1.7139 2.5326-2.6144 3.7836-1.0684-1.0589-2.2863-2.0107-3.1508-3.2159-0.54334-0.75729-0.54346-1.8984-0.80994-2.8611-2.4913-9.0018-6.2206-10.415-14.849-5.3376-0.023011-0.92691 0.25885-2.0328 0.62549-3.4703z" style="fill: rgb(161, 39, 155);"/>
  <path d="m421.03 260.52c-0.3529 3.5724-0.89972 6.685-1.0397 9.8159-0.17709 3.9605-1.9011 5.9026-5.9553 5.3893-4.9445-0.62595-10.458-0.13321-14.682-2.2283-5.4659-2.711-10.07-7.1193-15.733-9.9494-2.3596-1.1794-3.6331-5.0625-4.8089-7.9566-1.8127-4.4615-4.1137-7.8463-8.777-10.178-2.2895-1.1447-2.8847-5.5345-4.4301-8.3552-1.3297-2.4271-2.9197-4.7116-4.5478-6.9684-6.2423-13.019-12.165-26.221-21.545-37.463-0.37686-0.45166-0.34338-1.2457-0.20367-2.1382 5.2745 3.5777 11.133 6.6854 15.034 11.41 6.8723 8.3223 15.641 13.513 24.757 18.605 3.2153 1.7957 5.6306 4.9997 8.8106 6.8883 4.6904 2.7857 9.7569 4.9331 14.63 7.4178 10.302 5.2531 10.293 5.2704 12.517-5.8496 1.9869 10.37 3.9739 20.739 5.974 31.561z" style="fill: rgb(67, 226, 167);"/>
  <path d="m546.52 345.98c0.62805 1.0651 1.0703 2.3249 1.3593 3.6188 1.2426 5.5638 1.004 8.9721-6.3239 7.7967-5.235-0.83969-6.2721 2.9404-6.972 7.0461-0.72174 4.2347 0.98651 6.1279 5.0884 6.8172 1.8266 0.30695 4.3669 1.2389 5.052 2.6373 3.2518 6.6373 9.1357 5.7792 14.677 5.603 9.6546-0.30701 18.645-2.7254 26.132-9.307 0.69556-0.61142 1.826-0.728 3.1082-1.1352-3.8626 4.0538-8.0788 8.1685-12.471 12.552-6.3564 5.021-12.516 9.8008-18.723 14.519-8.5979 6.5351-17.231 13.024-26.126 19.72-4.4692-1.675-8.4891-2.7233-13.055-0.26175-3.4755 1.8737-5.2204-0.65915-6.6125-3.8125-1.1986-2.7153-2.8429-5.474-4.9736-7.4917-5.8896-5.5773-4.5257-19.818 2.856-22.669 6.2369-2.4091 9.0292-6.8371 10.411-13.195 0.22119-0.6597 0.38098-0.95184 1.0596-1.4678 2.0029-1.4449 3.4869-2.666 4.971-3.8872 6.7615-5.6241 13.523-11.248 20.541-17.083z" style="fill: rgb(161, 39, 155);"/>
  <path d="m264.83 487.08c-0.34354-0.057618-0.68704-0.11524-1.2861-0.2139-9.9096-7.4047-19.571-14.759-29.211-22.141-1.7145-1.3129-3.3401-2.7418-4.8517-4.4535 1.0837-0.68158 2.2183-0.79614 2.9067-1.4106 3.7299-3.3291 6.4326-1.4656 10.046 0.81015 5.3953 3.3979 11.543 5.6023 17.383 8.2874 0.26364 0.12125 0.69855 0.073883 0.97235-0.060547 7.5081-3.6861 14.127-0.1153 21.014 2.273 2.2736 0.78851 5.0602-0.013458 7.5928 0.17398 2.1334 0.1579 4.9312-0.02594 6.2183 1.2092 3.0865 2.9619 6.3541 4.515 10.595 4.6488 1.5266 0.048187 3.1902 0.8942 4.4986 1.7993 5.0003 3.4594 5.797 3.3131 8.3373-2.1235 12.228 11.572 22.653 24.547 30.797 39.993-0.76352 1.2955-1.9881 2.7672-2.4641 2.5555-3.5562-1.5815-6.984-3.4598-10.415-5.3132-8.8522-4.7816-17.164-10.761-27.66-11.795-1.6743-0.16507-3.1598-1.7637-4.8496-2.3768-2.0626-0.74835-4.2411-1.1884-6.3832-1.7045-6.3781-1.5369-12.841-2.7822-19.12-4.6505-4.8257-1.4361-9.4221-3.6427-14.12-5.5066z" style="fill: rgb(67, 226, 167);"/>
  <path d="m422.67 439.09c0.49634 3.7271 0.020386 7.7433 1.011 11.358 1.1162 4.0726 5.0581 4.0511 8.3205 2.8284 6.1672-2.3115 11.119 0.034302 16.307 2.9666 2.3572 1.3322 5.5746 2.2905 8.1297 1.8478 3.59-0.62189 6.5261-1.0739 8.3657 2.2281 7.8025-3.3366 12.295-11.745 21.846-12.255-10.339 8.285-21.051 16.639-31.84 24.893-4.3452 3.3242-8.8589 6.4282-13.924 9.9155-5.7732 1.1873-10.904 2.7262-16.067 2.843-7.2694 0.16449-14.566-1.1287-21.845-1.0575-8.2704 0.080963-15.976-5.3899-18.082-13.771 0 0 0.050903-0.002319 0.39407-0.063263 5.2619-0.9332 7.475-4.4013 8.7231-8.7952 1.1302-1.228 2.2605-2.4561 3.8181-4.0248 0.66418-0.53973 0.90015-0.73981 1.1353-0.94089 7.7939-5.954 15.588-11.908 23.707-17.974z" style="fill: rgb(161, 39, 155);"/>
  <path d="m61.181 187.32c4.7691-13.843 11.923-26.39 20.666-38.079 1.0802-1.4441 2.0177-2.995 3.4036-4.9875 2.8124-3.1245 5.2426-5.7578 7.7253-8.0171 2.0687 7.2773 3.5488 7.8396 10.042 5.9268 2.6581-0.78304 5.9749-0.6533 8.6408 0.18216 5.9914 1.8776 11.32 1.015 16.608-2.0356 1.122-0.64732 2.9466-1.1237 3.9915-0.65735 2.888 1.2889 4.5031 0.14275 6.4641-1.8333 1.35-1.3604 3.5656-2.7292 5.3231-2.643 4.0533 0.19884 8.0632 1.2817 11.921 2.2607-1.5872 1.3506-3.0047 2.4465-4.6724 3.7905-0.58722 0.57695-0.9241 0.90576-1.4129 1.459-1.0441 0.75453-1.9363 1.2846-2.9857 2.1229-0.38394 0.71007-0.61063 1.1119-0.853 1.7791-0.17592 0.93846-0.33614 1.6114-0.49634 2.2844-0.16199 0.20084-0.32398 0.40167-0.81934 0.83911-0.5491 0.18706-0.73325 0.23556-0.88583 0.38214-7.7308 7.5751-15.462 15.15-23.729 22.654-1.7849-0.35924-3.1123-1.0805-4.2684-0.86829-10.88 1.9975-21.735 4.1372-32.586 6.2908-1.1255 0.2234-2.1935 0.77132-3.2659 1.2215-6.2736 2.6335-12.541 5.2828-18.81 7.9268z" style="fill: rgb(67, 226, 167);"/>
  <path d="m318.86 475.6c-2.3571 5.7134-3.1537 5.8596-8.154 2.4003-1.3083-0.90512-2.972-1.7511-4.4986-1.7993-4.2405-0.13385-7.5082-1.6869-10.595-4.6488-1.2871-1.2352-4.085-1.0513-6.2183-1.2092-2.5326-0.18744-5.3192 0.61453-7.5928-0.17398-6.8868-2.3883-13.506-5.9591-21.014-2.273-0.2738 0.13443-0.70871 0.18179-0.97235 0.060547-5.8402-2.6851-11.988-4.8895-17.383-8.2874-3.6136-2.2757-6.3162-4.1393-10.046-0.81015-0.6884 0.61441-1.823 0.72897-3.1114 1.1476-0.35977 0.073364-0.33641 0.020202-0.52173-0.19342-1.061-0.72543-1.9367-1.2372-2.8124-1.749 0-3.1e-5 -0.005173-0.055451-0.19057-0.21277-0.47466-0.37537-0.76393-0.59341-1.0532-0.81143-10.38-7.2301-20.76-14.46-31.433-21.862-0.29228-0.17181-0.35848-0.63226-0.044815-0.92584 2.4232 0.013794 4.5922 0.10608 6.6308 0.66974 5.6333 1.5576 11.089 2.112 17.116 1.4795 7.393-0.77585 15.02 0.67728 22.545 1.184 0.31842 0.021454 0.61974 0.23526 0.93811 0.32834 11.281 3.2975 22.561 6.5988 33.847 9.8813 3.7752 1.0981 6.5792 0.19678 7.7447-3.9108 4.241 3.0584 8.7628 5.7985 12.665 9.2412 8.1634 7.2031 16 14.776 24.154 22.475z" style="fill: rgb(67, 226, 167);"/>
  <path d="m274.03 272.02c0.074463-1.3958 0.14893-2.7917 0.60742-4.5523 4.4523 0.58151 9.1066-3.0021 12.817 1.2518 0.25986 0.29788 1.5352-0.27808 2.3344-0.4646 6.0791-1.4188 11.239 0.71668 14.643 6.0205 0.43909 0.68408 0.93884 1.6212 1.6001 1.8246 5.4599 1.679 6.3936 6.5779 8.3909 10.935 1.087 2.3712 3.2872 4.3867 5.3922 6.0468 0.67017 0.52853 3.4021-0.17151 3.9073-1.0486 2.8791-4.9978 5.9568-9.9522 5.3713-16.233-0.23859-2.5592 0.59686-5.2185 0.9437-7.8322-0.1488 8.4143 0.33582 16.899-0.59195 25.227-1.4638 13.139-5.1766 25.743-12.715 37.467-5.826-0.63178-11.522-1.0431-13.413-7.3094-1.0736-3.5582-3.108-5.0338-6.6739-5.5638-6.1937-0.92032-7.9412-2.9212-8.5021-9.1096-0.69339-7.6499-3.08-14.331-8.6267-20.065-2.3348-2.4133-3.2018-6.3712-4.3571-9.7562-0.73608-2.1568-0.77643-4.551-1.1287-6.8387z" style="fill: rgb(161, 39, 155);"/>
  <path d="m83.89 337.08c-5.6829-9.8118-11.366-19.624-17.173-30.018-0.27606-0.83508-0.48875-1.016-0.76196-1.1259 0.084137-0.5354 0.16828-1.0708 0.28353-1.8079 2.2083 0.1207 4.3855 0.44302 6.861 0.80954-0.15079 0.89682-0.5011 2.004-0.46999 3.1003 0.025452 0.89743 0.25706 2.186 0.85636 2.5544 0.55834 0.34329 1.8669-0.073852 2.5961-0.54327 4.5719-2.9435 10.689-2.277 14.68 1.0175 1.3885 1.1462 3.9276 1.1334 5.9575 1.2078 2.4793 0.090851 5.0273-0.68869 7.4545-0.3786 6.4953 0.82977 12.942 2.0406 19.761 3.0228 9.6675 12.856 20.862 24.01 32.879 34.909-2.8325 4.1841-5.7015 8.3405-11.004 5.3508-7.0905-3.9977-14.267-7.4109-22.534-7.9696-0.5675-0.038361-1.2226-0.60504-1.6158-1.1013-2.5507-3.2189-5.9995-2.5226-9.5176-2.8054-5.6866-0.45706-11.821-0.93335-16.752-3.4162-3.9021-1.9648-7.1932-3.6684-11.5-2.8055z" style="fill: rgb(67, 226, 167);"/>
  <path d="m84.043 337.38c4.1546-1.1624 7.4456 0.54117 11.348 2.506 4.9311 2.4828 11.066 2.9591 16.752 3.4162 3.5181 0.28278 6.9669-0.41354 9.5176 2.8054 0.3932 0.49625 1.0483 1.0629 1.6158 1.1013 8.2667 0.55875 15.443 3.9719 22.534 7.9696 5.3028 2.9897 8.1718-1.1666 11.175-5.0503 10.069 7.3769 19.923 15.017 29.766 22.671 1.0246 0.79663 1.9892 1.6704 3.037 3.1266-0.84953 1.7321-1.7348 3.7843-2.6625 3.8036-5.0377 0.10492-10.258 0.44421-15.091-0.68567-7.5735-1.7707-14.829-4.4522-22.861-2.3658-1.7571 0.45645-4.4291-0.78729-6.0499-2.054-2.4424-1.9087-4.6381-2.4807-7.2336-0.81915-3.7561 2.4044-7.5261 2.3029-11.298 0.16644-2.9805-1.688-4.6577-0.4798-5.7138 2.3597-0.81766-0.66397-1.6353-1.3279-2.7739-2.5245-1.2524-1.2862-2.184-2.0397-3.1155-2.7932-5.1061-5.2252-10.212-10.45-15.578-15.874-4.5788-5.9521-8.8976-11.706-13.369-17.76z" style="fill: rgb(67, 226, 167);"/>
  <path d="m92.924 135.87c-2.4302 2.6333-4.8604 5.2667-7.5857 8.0591-2.7243-1.5267-4.9368-3.8767-7.6295-4.7554-5.0817-1.6582-10.07-2.2061-15.818-0.71756-8.287 2.1459-13.82-4.0073-12.956-12.306 0.16158-1.5512-0.52934-3.1913-0.97417-5.1091 7.3461-7.8483 14.804-15.414 22.363-22.877 1.4943-1.4754 3.3761-2.5583 5.5436-3.7994 2.1343 2.0545 3.5378 5.4918 5.5213 5.8675 7.4305 1.4075 15.035 2.0668 22.604 2.5253 7.6741 0.4649 8.1483 0.61782 9.3716 8.3736 0.25777 1.6343 0.47348 3.2752 0.69063 4.9151-0.017937 0.002045-0.011894-0.019012-0.17773 0.092262-0.38161 0.26593-0.58942 0.43063-1.0843 0.79587-6.8197 6.4387-13.344 12.687-19.869 18.935z" style="fill: rgb(67, 226, 167);"/>
  <path d="m114.07 116.04c-0.23508-1.6379-0.45079-3.2788-0.70856-4.9131-1.2233-7.7558-1.6975-7.9087-9.3716-8.3736-7.5686-0.45851-15.173-1.1179-22.604-2.5253-1.9835-0.3757-3.387-3.813-5.2345-6.0433 0.59868-0.88225 1.3751-1.566 2.5384-1.9987 1.3773 1.099 2.3677 1.9469 3.358 2.7948 0.71344-1.0469 1.7519-2.0095 2.0512-3.1638 0.31479-1.2142-0.077583-2.6117-0.16096-3.9291 5.2137-3.6087 10.204-7.613 15.699-10.725 6.6435-3.7616 13.715-6.7671 20.965-10.147-1.3141 1.2645-3.4167 2.2882-4.5555 3.966-1.251 1.8431-1.6144 4.2886-2.3646 6.4717 1.8781 0.48604 3.7374 1.2849 5.6379 1.3992 5.5958 0.33647 11.418-0.48836 16.766 0.7738 8.8256 2.0828 17.064-1.4606 25.534-1.2183 5.7705 0.16507 11.488 2.1835 17.54 3.6203-1.1864 0.82092-2.6831 1.3948-4.728 2.0793-0.81428 0.24026-1.0727 0.38387-1.3234 0.5414-5.3836 2.2054-10.767 4.4108-16.194 7.0313-0.043213 0.41507 0.1019 0.255-0.26598 0.23718-0.98665 0.34319-1.6054 0.70419-2.298 0.99492-0.073822-0.070282-0.2713-0.019684-0.54684 0.065384-0.4765 0.38678-0.67746 0.68848-0.84581 1.0007 0.032608 0.010475 0.049164-0.055977-0.27901-0.1425-0.76231 0.030724-1.1965 0.14796-1.9766 0.33713-11.61 6.9566-22.874 13.841-34.402 20.804-0.91965 0.40626-1.5746 0.73412-2.2296 1.062z" style="fill: rgb(67, 226, 167);"/>
  <path d="m690.94 292.82c-2.7858 6.8225-7.4009 9.0159-14.626 8.0281-4.2698-0.58368-8.3994-0.13654-12.205-3.0118-1.5876-1.1995-4.576-1.6981-6.4818-1.0985-4.9598 1.5602-7.5948-0.058563-9.0846-4.7279-0.42194-1.3226-1.3732-2.4763-2.0348-3.6258-2.4537 2.753-4.5823 5.1413-7.0015 7.2235 2.2776-8.4148 4.8458-16.524 7.4247-25.047 0.047059-1.7946 0.083374-3.1751 0.42804-4.6874 1.7031-1.9264 3.3228-3.5912 4.4496-5.5407 3.0824-5.3327 5.4644-6.1235 10.99-3.5783 1.927 0.88754 4.0259 1.6957 6.1061 1.886 2.948 0.26972 6.1472-0.74051 8.8746 0.051331 2.5829 0.74994 4.696 3.1184 6.9579 4.7338 1.3693-2.142 2.7729-4.1439 3.9719-6.2616 1.5585-2.7526 3.7045-5.4563 4.2637-8.4318 1.1595-6.1692 1.439-12.504 2.2073-18.377 0.354 3.0121 0.87067 5.6428 0.75867 8.2464-0.55243 12.834-1.2715 25.661-2.1296 38.669-2.2478 4.8512-6.0102 9.2286-2.7207 14.821 0 0-0.10565 0.48398-0.1485 0.72794z" style="fill: rgb(161, 39, 155);"/>
  <path d="m281.87 443.6c-0.9855 4.3886-3.7895 5.2899-7.5647 4.1918-11.286-3.2826-22.566-6.5839-33.847-9.8813-0.31838-0.093079-0.61969-0.30688-0.93811-0.32834-7.5249-0.50671-15.152-1.9598-22.545-1.184-6.0272 0.63248-11.483 0.078125-17.116-1.4795-2.0387-0.56366-4.2077-0.65594-6.6663-0.8996-8.2121-5.7126-16.075-11.489-23.864-17.766 4.1718-4.2966 9.1391-2.6717 13.835-2.6929 15.919-0.07196 31.147 8.4019 47.687 3.1449 4.3022-1.3674 6.9137-2.0555 7.1731-6.6588 14.556 11.091 29.111 22.182 43.847 33.554z" style="fill: rgb(67, 226, 167);"/>
  <path d="m407.36 349.8c-8.8914 0.48257-17.594 0.84967-26.298 0.88107-2.0455 0.007385-4.0603-1.381-6.1515-1.659-2.8012-0.37232-5.7602-0.78751-8.4712-0.25919-2.6691 0.52014-4.1859 0.51624-5.5995-2.1929-1.3408-2.5697-3.5252-4.6992-5.5547-7.2697 2.7145-9.0514 5.6449-17.855 8.7949-26.972 0.36453-0.23074 0.55988-0.18506 0.6474-0.062409 6.3246 8.8658 14.558 6.1919 22.379 3.2198 7.5885-2.8838 14.75-4.6252 22.518-0.51999 4.1938 2.2163 5.438-2.5394 8.0494-4.7225-0.68445 5.2748-1.1856 10.883-2.6467 16.228-2.1307 7.7957-4.9517 15.403-7.6664 23.328z" style="fill: rgb(67, 226, 167);"/>
  <path d="m330.04 267.53c-0.35156 3.0511-1.187 5.7104-0.94842 8.2696 0.58551 6.2805-2.4922 11.235-5.3713 16.233-0.50528 0.87708-3.2372 1.5771-3.9073 1.0486-2.105-1.6601-4.3052-3.6755-5.3922-6.0468-1.9973-4.3569-2.9311-9.2558-8.3909-10.935-0.66129-0.20334-1.161-1.1405-1.6001-1.8246-3.4042-5.3039-8.5642-7.4393-14.643-6.0205-0.79919 0.18652-2.0745 0.76248-2.3344 0.4646-3.7109-4.2539-8.3651-0.67029-12.763-1.6675-0.32028-0.8045-0.31149-1.5581-0.009766-2.8474 2.6458-3.0338 4.3365-5.5436 0.4281-8.1528 0.033081-1.3992 0.066162-2.7984 0.25195-4.7447 0.35602-1.1103 0.55933-1.6734 0.76263-2.2365 0.32004-1.7718 0.64008-3.5435 1.2561-5.8838 0.7279-2.1118 1.1598-3.6551 1.5917-5.1983 0.58722-2.4545 1.1744-4.909 2.3101-7.6062 1.3332 0.016525 2.2193 0.12146 2.8861 0.55991 4.3497 2.8598 8.6126 5.8532 13 8.653 0.98199 0.62672 2.6148 1.2553 3.4853 0.86116 4.1122-1.8619 5.6215 0.001267 6.7684 3.6975 1.72 5.543 7.4938 6.769 10.956 2.1054 1.9419-2.616 2.5296-6.2373 3.7274-9.4056 5.399 9.3572 7.2737 19.64 7.9372 30.677z" style="fill: rgb(161, 39, 155);"/>
  <path d="m265.06 487.33c4.4725 1.6112 9.0689 3.8178 13.895 5.2539 6.2785 1.8683 12.742 3.1137 19.12 4.6505 2.1421 0.51614 4.3206 0.95615 6.3832 1.7045 1.6899 0.6131 3.1753 2.2118 4.8496 2.3768 10.496 1.0348 18.808 7.0137 27.66 11.795 3.4312 1.8534 6.8589 3.7317 10.415 5.3132 0.47598 0.21167 1.7006-1.26 2.6464-2.2663 3.0923 5.4377 6.1169 11.189 9.0654 17.641 0.23044 2.7338 0.20786 4.8909 0.91364 6.7753 1.3654 3.6455 0.008484 5.9276-3.8781 5.5552-1.4169-0.13574-2.7716-0.9928-4.1392-1.5582-5.3819-2.2249-10.662-4.8483-16.745-2.1291-0.99982 0.44696-2.5207-0.14526-3.7694-0.40674-2.8833-0.60388-5.7473-1.2997-8.6191-1.9582-0.23224-0.17615-0.44315-0.37494-0.87848-1.0403-0.50516-0.96692-0.76456-1.4898-1.0239-2.0128 0 0-0.024902 0.094421-0.15118-0.23895-2.1107-6.1432-6.7162-9.2346-11.92-11.705 0 0 0.046387-0.040832-0.076385-0.33307-2.6604-2.4515-5.1981-4.6109-7.7357-6.7702-11.928-10.131-23.857-20.263-36.011-30.647z" style="fill: rgb(67, 226, 167);"/>
  <path d="m415.03 228.63c-2.203 11.445-2.1942 11.428-12.496 6.175-4.8729-2.4847-9.9394-4.6321-14.63-7.4178-3.1799-1.8886-5.5953-5.0926-8.8106-6.8883-9.1158-5.091-17.884-10.282-24.757-18.605-3.9011-4.7242-9.7597-7.8319-15.067-11.771-5.1974-5.2354-10.065-10.367-15.124-15.768 8.1887-2.2755 15.145-0.10773 20.652 6.6515 0.89374 1.0969 2.1853 2.1369 3.5015 2.5713 3.6178 1.194 7.3398 2.0779 11.033 3.0361 4.095 1.0625 7.7342 1.0747 10.749-2.8605 0.78879-1.0297 3.5751-0.52911 5.4441-0.73132-0.5697 1.6216-0.66574 3.7931-1.7946 4.7655-3.9835 3.4316-4.114 4.9218 0.047699 7.8889 1.2097 0.86249 2.6246 1.6326 3.4551 2.7952 2.5563 3.5786 4.8734 3.6995 8.111 0.61122 3.144-2.9989 6.629-2.0523 8.1627 2.1933 1.222 3.3829 3.0312 4.8917 6.6338 5.6651 3.02 0.64836 5.6679 3.03 8.9978 4.7528 0.51724 0.10866 0.83188 0.26536 0.83188 0.26536 0.001617 0.17302 0.003265 0.34602 0.045318 1.1317 0.64682 2.0396 1.2533 3.4667 1.8597 4.8937 0 0 0.065795 0.48291 0.21503 0.97487 0.3732 0.98787 0.59717 1.4838 0.82117 1.9796 3.1e-5 0 0.14062 0.40849 0.35101 0.79907 0.38464 0.64352 0.54394 0.90556 0.6882 1.1767 0.02246 0.6499 0.044952 1.2998 0.2485 2.5202 0.37967 0.90199 0.57828 1.2335 0.77686 1.565 0.010528 0.43471 0.021087 0.86942 0.05249 1.6295z" style="fill: rgb(67, 226, 167);"/>
  <path d="m619.75 152.07c4.6425 6.863 9.1284 13.74 13.211 20.848 2.0425 3.5563 3.3497 7.5349 4.7377 11.831-6.7322 2.6155-10.565 0.77094-14.216-5.3178-1.42-2.368-3.7556-4.4784-6.1498-5.911-5.2519-3.1425-10.965-5.5158-16.202-8.6801-8.1767-4.9406-16.801-6.6077-26.46-4.7526-1.3759 0.32312-2.4332 0.57314-3.4905 0.82315-0.62433-0.49939-1.2487-0.9988-2.1964-2.0251-1.5507-1.304-2.7781-2.0812-4.0055-2.8583-0.58691-0.49431-1.1738-0.98862-2.1102-1.8594-0.54285-0.61304-0.72644-0.85696-0.90021-1.1083 0 0-0.067932 0.081955-0.28967-0.18326-1.0168-0.80412-1.8119-1.3431-2.6069-1.882-0.28802-0.17564-0.57599-0.35129-1.1242-0.89124-0.81696-0.61253-1.3735-0.86079-1.9302-1.109-2.4817-1.6324-4.9634-3.2648-7.7327-5.0906 2.174-2.294 4.7906-4.2412 7.0569-6.5346 2.7248-2.7573 5.8158-0.66965 8.4467-1.1517 7.4435-1.364 13.339 1.775 19.711 4.1694 2.0314 0.76322 4.6327 0.52618 6.8656 0.13417 5.5129-0.96793 9.1247 1.8637 13.373 4.833 4.5817 3.2021 10.406 4.6256 16.012 6.7153z" style="fill: rgb(161, 39, 155);"/>
  <path d="m119.07 376.59c0.86058-3.0961 2.5378-4.3044 5.5182-2.6163 3.7723 2.1365 7.5423 2.238 11.298-0.16644 2.5955-1.6615 4.7912-1.0895 7.2336 0.81915 1.6208 1.2667 4.2928 2.5104 6.0499 2.054 8.0317-2.0864 15.288 0.59509 22.861 2.3658 4.8328 1.1299 10.053 0.79059 15.091 0.68567 0.92766-0.019318 1.813-2.0715 2.8309-3.5076 1.3299 0.48776 2.5467 1.2977 3.9658 2.6776 1.1728 1.0495 2.1434 1.5291 3.1139 2.0088 6.9444 4.7837 13.897 9.5561 20.826 14.361 1.333 0.92432 2.5772 1.9768 3.9301 3.5925-1.6175 1.4591-3.3463 3.0877-4.9806 2.9979-7.8224-0.43005-15.646-1.1184-23.418-2.1156-7.3614-0.94458-14.632-2.6089-21.997-3.5118-3.4594-0.42413-7.0457 0.24872-10.577 0.3212-1.7061 0.035065-3.755 0.40424-5.0641-0.36838-4.3742-2.5818-7.8289-1.9259-10.83 2.02-4.8061-3.6185-9.6122-7.237-14.716-11.02-3.8457-3.5567-7.3939-6.9487-11.138-10.597z" style="fill: rgb(67, 226, 167);"/>
  <path d="m647.05 266c-0.036377 1.3805-0.072692 2.761-0.43164 4.6786-2.1805 1.4915-4.0385 2.4458-6.5623 3.7422-0.60706-2.813-1.2197-4.9855-1.5215-7.2003-0.50507-3.7055-2.2544-6.1052-6.073-6.8938-3.3991-0.70194-6.7816-1.5158-10.123-2.4537-1.5386-0.43188-3.7938-0.89813-4.2963-2-2.5975-5.6962-6.5675-7.6302-12.164-4.9443-1.1776-2.7797-2.0594-4.8613-2.9413-6.9428 0.073059-3.3579 0.14612-6.7158 0.35046-10.611-0.030517-0.76834-0.19238-0.9991-0.35425-1.2299-0.85144-5.6316-1.5337-11.296-2.6101-16.884-0.80377-4.1728-2.1164-8.2476-3.1538-12.818 1.1624 1.0002 2.5962 2.3072 3.3337 3.9306 3.0341 6.6779 6.21 12.948 14.931 13.382 1.674 0.083191 3.3247 1.3896 4.9152 2.2612 6.8103 3.732 13.473 7.762 20.455 11.135 2.3279 1.1246 5.447 0.61148 8.4517 0.84732 0.24732 2.59e-4 0.74219 0.002502 0.73889 0.47028-0.98389 10.822-1.9644 21.177-2.9449 31.532z" style="fill: rgb(161, 39, 155);"/>
  <path d="m649.01 234c-2.7574-0.23556-5.8765 0.27751-8.2044-0.84705-6.9819-3.3727-13.645-7.4027-20.455-11.135-1.5905-0.87158-3.2413-2.178-4.9152-2.2612-8.7208-0.4335-11.897-6.7037-14.931-13.382-0.73749-1.6234-2.1713-2.9303-3.4285-4.2881-4.7232-8.5798-9.2415-17.288-13.928-25.904-1.0779-1.9816-2.7348-3.6483-4.1018-5.8548 0.023438-0.39482 0.12946-0.48543 0.46594-0.36417 6.4167 2.9909 12.684 5.4178 14.892 12.986 0.56104 1.923 3.5067 3.2224 5.4764 4.6421 1.9935 1.4368 4.0702 2.788 6.2297 3.9565 2.4122 1.3052 4.8564 2.7403 7.4685 3.4455 4.7744 1.2889 9.6428 2.4896 14.546 2.9682 4.9352 0.4817 9.9606 0.039993 15.151 0.29889 4.5157 11.725 5.7986 23.626 5.7343 35.738z" style="fill: rgb(161, 39, 155);"/>
  <path d="m323.04 540.36c2.6844 0.37769 5.5484 1.0735 8.4317 1.6774 1.2487 0.26147 2.7696 0.8537 3.7694 0.40674 6.0825-2.7192 11.363-0.095764 16.745 2.1291 1.3676 0.56537 2.7223 1.4224 4.1392 1.5582 3.8865 0.37244 5.2434-1.9097 3.8781-5.5552-0.70578-1.8843-0.6832-4.0415-0.84909-6.4048 9.0501 18.288 11.86 38.005 10.348 58.396-0.77579 10.465-3.0291 20.652-8.1935 30.315 0.93442-23.459-10.362-42.712-22.509-61.534-4.6711-7.2379-10.352-13.824-15.76-20.988z" style="fill: rgb(67, 226, 167);"/>
  <path d="m51.752 251.45c0.00779-5.1251 0.083652-9.8261 0.62902-15.001 3.8653-1.6572 7.1769-3.323 10.673-3.9327 10.242-1.7861 20.063-7.1881 30.996-3.7308 1.397 0.44176 3.2149-0.44745 4.8378-0.72006 0.031677 5.3693 0.063362 10.739 0.081276 16.593-0.35833 5.6556-0.70289 10.827-1.1201 17.089-1.8849-1.4334-3.7116-2.1056-4.1674-3.3006-1.5106-3.9608-4.3786-3.7081-7.6763-3.3635-2.5445 0.26592-5.1462-0.064514-7.7186 0.00856-0.90304 0.02565-1.8753 0.3112-2.6771 0.7385-3.5405 1.8866-6.8267 4.6469-10.587 5.6311-5.5079 1.4416-8.8424 4.1651-9.8086 10.141-1.2144-6.3502-2.3039-13.039-3.4614-20.151z" style="fill: rgb(67, 226, 167);"/>
  <path d="m602.71 244.33c1.1035 1.735 1.9853 3.8166 3.1629 6.5963 5.5967-2.6859 9.5666-0.75191 12.164 4.9443 0.50244 1.1018 2.7576 1.5681 4.2963 2 3.3411 0.93787 6.7236 1.7518 10.123 2.4537 3.8186 0.7886 5.5679 3.1883 6.073 6.8938 0.30182 2.2148 0.91449 4.3873 1.5215 7.2003 2.5238-1.2964 4.3817-2.2507 6.5516-3.328-2.2563 7.9858-4.8245 16.095-7.4637 24.573-1.0049 2.8134-1.9388 5.2569-3.0375 8.0136-4.8644 1.6893-6.0397-0.76328-6.0934-4.8769-0.13318-10.206-0.56763-9.3234-9.9145-13.258-5.5291-2.3277-10.463-6.1661-16.444-8.1768-2.1834-0.73392-3.1284-5.1525-4.8347-8.2161-0.083191-0.73477 0.030029-1.1436 0.33234-2.0638 0.38721-0.77136 0.5813-1.0343 0.7713-1.3002 0.85693-7.0361 1.7139-14.072 2.7924-21.455z" style="fill: rgb(161, 39, 155);"/>
  <path d="m145.1 398.41c2.8283-4.1489 6.2831-4.8047 10.657-2.2229 1.3091 0.77261 3.358 0.40344 5.0641 0.36838 3.5309-0.072479 7.1173-0.74533 10.577-0.3212 7.3649 0.90296 14.635 2.5673 21.997 3.5118 7.7717 0.99719 15.595 1.6856 23.418 2.1156 1.6343 0.089814 3.3631-1.5388 5.1472-2.7036 5.211 3.3151 10.323 6.9584 15.747 10.747 0.052567 4.7484-2.5589 5.4365-6.8611 6.8039-16.54 5.2569-31.768-3.2169-47.687-3.1449-4.6962 0.02121-9.6634-1.6037-14.039 2.4319-6.7627-4.5782-13.248-9.3961-20.167-14.69-0.76817-0.75299-1.1019-1.0299-1.4356-1.3069-0.74785-0.46191-1.4957-0.92383-2.4164-1.5887z" style="fill: rgb(67, 226, 167);"/>
  <path d="m61.048 187.59c6.4018-2.9095 12.669-5.5588 18.942-8.1923 1.0725-0.45023 2.1404-0.99814 3.2659-1.2215 10.851-2.1536 21.705-4.2933 32.586-6.2908 1.1561-0.21225 2.4835 0.50905 3.9562 1.0176-7.6535 10.15-12.211 21.759-17.099 33.844-4.375 1.1682-6.9663 0.37538-7.6198-4.2071-0.14619-1.0252-2.5801-2.4519-3.9476-2.4375-3.9698 0.041748-7.9888 0.44185-11.884 1.2215-4.9208 0.98491-10.051 1.8332-14.499 3.9723-3.3633 1.6176-5.9632 2.6348-9.1344 0.37808 0.41596-2.2964 0.83191-4.5929 1.2287-7.2791 1.345-3.7731 2.7092-7.1563 4.2059-10.805z" style="fill: rgb(67, 226, 167);"/>
  <path d="m55.446 206.02c3.3393 1.9047 5.9392 0.8875 9.3026-0.73009 4.4477-2.1391 9.5783-2.9874 14.499-3.9723 3.8956-0.77969 7.9146-1.1798 11.884-1.2215 1.3675-0.014405 3.8014 1.4123 3.9476 2.4375 0.65346 4.5824 3.2448 5.3753 7.4559 4.5433-0.93381 6.6871-2.2217 13.419-3.5788 20.566-1.6922 0.68774-3.51 1.577-4.907 1.1352-10.933-3.4573-20.753 1.9447-30.996 3.7308-3.4958 0.60963-6.8074 2.2754-10.606 3.4699 0.67484-9.8616 1.7522-19.734 2.9978-29.959z" style="fill: rgb(67, 226, 167);"/>
  <path d="m273.85 272.39c0.52738 1.92 0.56772 4.3142 1.3038 6.4709 1.1552 3.3851 2.0222 7.3429 4.3571 9.7562 5.5468 5.7331 7.9333 12.415 8.6267 20.065 0.56091 6.1885 2.3084 8.1893 8.5021 9.1096 3.5659 0.52991 5.6003 2.0056 6.6739 5.5638 1.8907 6.2663 7.5869 6.6776 13.231 7.608-5.2688 8.7835-10.886 17.582-16.632 26.296-1.8334 2.7802-4.067 2.1745-5.4339-0.36878-3.8479-7.1593-8.1792-14.183-10.963-21.758-3.4156-9.2939-6.3898-18.954-7.8452-28.71-1.6519-11.074-1.4129-22.43-1.8208-34.032z" style="fill: rgb(161, 39, 155);"/>
  <path d="m384.55 470.97c2.4438 8.2989 10.15 13.77 18.42 13.689 7.278-0.071197 14.575 1.222 21.845 1.0575 5.1632-0.11685 10.294-1.6557 15.798-2.6445-5.1483 4.4074-10.655 8.8994-16.389 13.628-1.3933 0.785-2.5605 1.3338-4.3013 2.2075-4.704 3.895-8.8344 7.4652-12.965 11.035-1.3633 0.92972-2.6704 1.958-4.0998 2.7716-5.3616 3.0517-7.7705 2.2205-11.256-2.8814-3.1028-4.5413-6.6841-8.7556-10.342-13.258-2.2557-3.1779-3.9651-6.4255-6.2538-9.1943-3.2631-3.9476-2.5945-7.0421 1.1783-9.9819 2.6905-2.0965 5.3524-4.2296 8.3651-6.428z" style="fill: rgb(161, 39, 155);"/>
  <path d="m454.46 308.19c0.54739 3.0504 2.0271 6.8603 0.95203 9.7045-2.4579 6.5023-0.35275 12.507 0.68176 18.591 0.28684 1.687 2.888 3.8069 4.7724 4.2453 6.3986 1.4887 12.92 2.7133 19.459 3.2236 3.2561 0.25409 6.6506-1.2651 10.347-1.9602-8.264 6.7412-16.779 13.613-25.549 20.141-10.642 7.921-21.478 15.581-32.28 23.285-2.2301 1.5908-4.6746 2.881-7.3697 3.9767 14.516-25.347 25.673-51.682 28.987-81.207z" style="fill: rgb(161, 39, 155);"/>
  <path d="m322.04 236.63c-1.1357 3.3908-1.7235 7.012-3.6654 9.628-3.4618 4.6635-9.2356 3.4375-10.956-2.1054-1.1469-3.6962-2.6562-5.5594-6.7684-3.6975-0.87051 0.39414-2.5033-0.23444-3.4853-0.86116-4.387-2.7998-8.6499-5.7933-13-8.653-0.66687-0.43845-1.553-0.54338-2.6825-0.87506 3.9243-8.4724 8.0944-16.925 12.517-25.243 1.5228-2.8641 4.0756-3.0315 6.0137-0.40956 6.3551 8.5974 12.528 17.329 18.824 26.552 0.43488 1.0186 0.81723 1.4942 1.1996 1.9698 0 0 0.032867 0.018845 0.16122 0.19658 0.32126 0.39905 0.51584 0.61885 0.7121 0.83716 0 0 0.064423 0.48325 0.24558 0.89554 0.36258 0.63966 0.54568 0.86566 0.73047 1.0903 0 0 0.09082 0.45282 0.15289 0.67525z" style="fill: rgb(161, 39, 155);"/>
  <path d="m151.54 140.98c1.4174-1.0958 2.8348-2.1917 4.4214-3.5483 0.16916-0.26073 0.18547-0.27202 0.48354-0.38165 1.4185-1.0563 2.5389-2.0029 3.9637-3.0877 3.0696-2.0536 5.8348-3.9691 8.6-5.8846 0.41591 3.9332 2.513 5.0236 6.2412 3.9962 17.927-4.9402 36.092-7.7086 54.727-5.3896 2.2141 0.27553 4.3427 1.2375 6.744 2.1277-7.0459-0.1161-14.324-0.77646-21.604-0.78677-24.508-0.03466-47.219 6.2161-67.667 20.018-0.40584 0.27394-0.9046 0.41022-1.6343 0.72072-0.11412-0.56299 0.046096-1.236 0.47435-2.4258 0.43132-0.95657 0.5946-1.3963 0.75789-1.8361 0.89221-0.53006 1.7844-1.0601 3.1189-2.0225 0.75246-0.78796 1.0627-1.1437 1.3728-1.4994z" style="fill: rgb(67, 226, 167);"/>
  <path d="m694.01 277.09c0.66028-12.829 1.3793-25.656 1.9318-38.49 0.112-2.6036-0.40466-5.2343-0.76672-8.69-0.46741-4.2005-0.79956-7.5634-1.1438-11.354-2.3203-10.464-4.6285-20.5-6.9366-30.537-0.48712-2.7648-0.97424-5.5296-1.4332-8.5984 1.3528 2.7128 2.9857 5.6341 3.9543 8.7612 9.191 29.675 10.749 59.817 4.9864 90.33-0.37305-0.49213-0.4826-0.95724-0.59216-1.4224z" style="fill: rgb(161, 39, 155);"/>
  <path d="m509.41 496.92c2.9516-3.8709 5.5871-8.7589 9.6483-11.63 6.2368-4.4086 13.454-7.4305 20.596-11.128-9.7463 7.49-19.834 15.067-30.244 22.758z" style="fill: rgb(161, 39, 155);"/>
  <path d="m665.96 138.65c-2.8306 2.836-5.5086 2.7798-8.9832 0.86406-2.598-1.4324-6.0695-1.2805-10.266-2.0342 4.3123-2.9997 8.0432-5.5949 12.062-8.379 2.5677 2.9423 4.8474 6.0734 7.187 9.5491z" style="fill: rgb(161, 39, 155);"/>
  <path d="m245.14 130.51c3.8432-3.3961 7.4132-5.384 12.201-0.37167 3.1584 3.3064 8.135 4.8759 12.476 7.5082-8.0178-2.1024-16.214-4.4898-24.677-7.1365z" style="fill: rgb(67, 226, 167);"/>
  <path d="m242.24 535.36c7.6449-0.22241 8.7659 0.59717 9.6358 7.3287-3.1489-2.0865-6.2971-4.5776-9.6358-7.3287z" style="fill: rgb(67, 226, 167);"/>
  <path d="m6.1323 213.4c1.2203 1.3206 2.6796 2.8911 3.5585 4.7378 1.7703 3.7197 0.62043 5.639-4.04 4.9754-0.42075-0.79854-0.51912-1.5618-0.44982-2.886 0.3306-1.5241 0.49354-2.4874 0.65647-3.4507 0.083757-1.0006 0.16751-2.0012 0.27481-3.3766z" style="fill: rgb(67, 226, 167);"/>
  <path d="m693.81 277.27c0.30744 0.28635 0.41699 0.75146 0.59692 1.5677-0.90796 4.5293-1.8863 8.7075-3.0911 13.069-3.516-5.4086 0.2464-9.786 2.4941-14.637z" style="fill: rgb(161, 39, 155);"/>
  <path d="m83.702 87.931c0.3215 1.2747 0.71387 2.6722 0.39908 3.8864-0.29926 1.1543-1.3377 2.1169-2.0512 3.1638-0.99038-0.8479-1.9808-1.6958-3.0479-2.8788 0.039459-0.572 0.20082-0.77261 0.78262-1.2249 0.65054-0.5418 0.92582-0.79561 1.2011-1.0494 0.11384-0.25008 0.27371-0.46609 0.84657-0.90827 0.6376-0.44977 0.90046-0.64952 1.1555-0.8595 0 0 0.476-0.086685 0.71413-0.12935z" style="fill: rgb(67, 226, 167);"/>
  <path d="m393.67 462.09c-0.90836 4.3341-3.1215 7.8022-8.3962 8.7574 2.4481-2.8439 5.2523-5.7708 8.3962-8.7574z" style="fill: rgb(161, 39, 155);"/>
  <path d="m456.74 291.32c1.4444 4.2949 2.4135 8.9331-1.2057 13.438 0.17792-4.2045 0.60504-8.6373 1.2057-13.438z" style="fill: rgb(161, 39, 155);"/>
  <path d="m571.31 161.21c0.92566-0.55345 1.983-0.80347 3.4578-0.78528 1.7456 3.317 3.0739 6.3657 4.402 9.4145 0 0-0.10602 0.090606-0.15924 0.13559-2.5585-2.7905-5.0637-5.6259-7.7006-8.7648z" style="fill: rgb(161, 39, 155);"/>
  <path d="m418.44 308.92c0.50076-4.6154 1.2252-9.5012 2.18-14.643-0.4985 4.6202-1.2274 9.4963-2.18 14.643z" fill="#011f37"/>
  <path d="m202.03 53.577c-8.2872 0.47329-16.771 0.534-25.725 0.4947 0.16835-0.4739 0.80778-1.1744 1.4446-1.1721 8.028 0.029308 16.056 0.16002 24.28 0.67741z" fill="#43e2a7"/>
  <path d="m275.08 256.03c3.9344 2.6297 2.2437 5.1395-0.3681 7.7979-0.35281-1.582-0.44681-3.3243-0.43033-5.7346 0.30939-1.1434 0.50833-1.6188 0.70724-2.0942 0 0 0.065247 0.01033 0.091187 0.030807z" style="fill: rgb(161, 39, 155);"/>
  <path d="m163.36 182.97c0.60246 4.0916-2.1788 5.3038-5.9408 5.9858 1.6394-1.9108 3.6455-3.8868 5.9408-5.9858z" style="fill: rgb(161, 39, 155);"/>
  <path d="m456.26 254.42c3.1798 1.7884 2.7811 4.3748 0.63855 7.412-0.38135-2.1376-0.53848-4.5638-0.63855-7.412z" style="fill: rgb(161, 39, 155);"/>
  <path d="m545.76 190.76c-3.2993 0.18713-5.1704-1.6466-5.6929-5.3885 1.7999 1.4576 3.6649 3.2807 5.6929 5.3885z" style="fill: rgb(161, 39, 155);"/>
  <path d="m235.24 530.28c1.9906 1.2064 4.2027 2.6501 6.5399 4.4083-2.0227-1.1806-4.1705-2.6758-6.5399-4.4083z" fill="#01011c"/>
  <path d="m682.81 170.65c-1.1132-1.7868-2.2823-3.9233-3.473-6.4176 1.1246 1.7841 2.2709 3.9261 3.473 6.4176z" fill="#200133"/>
  <path d="m367.1 294.4c-0.097046 1.4778-0.29382 3.324-0.71359 5.3724 0.055969-1.5333 0.3349-3.2686 0.71359-5.3724z" fill="#011f37"/>
  <path d="m230.14 526.35c1.3999 0.82898 3.0048 1.9016 4.7039 3.3042-1.4368-0.80029-2.9679-1.9304-4.7039-3.3042z" fill="#01011c"/>
  <path d="m173.67 176.01c-1.0525 0.93199-2.4299 1.9461-4.1551 3.0049 1.0449-0.94449 2.4376-1.9336 4.1551-3.0049z" fill="#013b4c"/>
  <path d="m196.88 380.63c-0.81549-0.20032-1.786-0.67993-2.8007-1.455 0.85246 0.19492 1.7491 0.68533 2.8007 1.455z" fill="#0a8571"/>
  <path d="m525.68 363.18c-1.1845 1.1102-2.6686 2.3313-4.5211 3.5767 1.1616-1.1391 2.6915-2.3024 4.5211-3.5767z" fill="#2c013e"/>
  <path d="m476.61 166.21c-1.0791 0.39371-2.5252 0.73497-4.2598 0.97904 1.1053-0.40865 2.499-0.72008 4.2598-0.97904z" fill="#480552"/>
  <path d="m154.74 191.34c-0.80597 1.0556-1.8747 2.2619-3.2518 3.5626 0.79076-1.0744 1.8899-2.2431 3.2518-3.5626z" fill="#013b4c"/>
  <path d="m278.78 238.26c-0.23914 1.2693-0.67102 2.8126-1.3067 4.5497 0.23544-1.296 0.67471-2.7858 1.3067-4.5497z" fill="#280437"/>
  <path d="m551.95 198.66c-0.87988-1.1137-1.8273-2.5529-2.8132-4.3421 0.88965 1.1056 1.8176 2.5611 2.8132 4.3421z" fill="#480552"/>
  <path d="m541.42 472.91c0.82404-0.81052 1.9636-1.7081 3.4382-2.6569-0.81757 0.82245-1.9702 1.6961-3.4382 2.6569z" fill="#090220"/>
  <path d="m494.68 165.95c-0.86087 0.2497-1.9567 0.30885-3.3187 0.28149 0.85043-0.21501 1.9671-0.34352 3.3187-0.28149z" fill="#480552"/>
  <path d="m547.69 469.12c0.68707-0.89066 1.6525-1.8733 2.9282-2.9304-0.67639 0.89648-1.6631 1.8675-2.9282 2.9304z" fill="#090220"/>
  <path d="m565.13 156.31c1.0753 0.49126 2.3027 1.2684 3.6793 2.3257-1.0764-0.49316-2.3018-1.2665-3.6793-2.3257z" fill="#5f0e62"/>
  <path d="m139.09 223.29c-0.025711 0.63689-0.20062 1.5551-0.56583 2.5897 0.012024-0.6919 0.21434-1.5001 0.56583-2.5897z" fill="#012f43"/>
  <path d="m411.88 217.65c-0.60593-1.0856-1.2124-2.5127-1.85-4.2929 0.5957 1.0817 1.2226 2.5166 1.85 4.2929z" fill="#012f44"/>
  <path d="m365.47 303.14c0.12091 0.64725 0.056671 1.5602-0.16885 2.6532-0.11298-0.67584-0.064637-1.5316 0.16885-2.6532z" fill="#011f37"/>
  <path d="m121.02 310.54c-0.33955-0.2681-0.71895-0.80493-0.9744-1.4713 0.39415 0.31448 0.66435 0.75851 0.9744 1.4713z" fill="#0e9179"/>
  <path d="m506.9 167.47c-0.67426 0.17754-1.5952 0.13054-2.7022-0.073867 0.69446-0.15517 1.575-0.15292 2.7022 0.073867z" fill="#480552"/>
  <path d="m367.51 289.14c0.090607 0.64917-0.005341 1.5665-0.26996 2.6622-0.084625-0.67911-6.1e-4 -1.5366 0.26996-2.6622z" fill="#011f37"/>
  <path d="m548.88 193.66c-0.7793-0.49988-1.7156-1.2589-2.7823-2.3012 0.78827 0.49182 1.7068 1.2669 2.7823 2.3012z" fill="#480552"/>
  <path d="m140.94 264.37c0.63249 0.79413 1.2702 1.9216 1.9604 3.3834-0.6167-0.79379-1.2859-1.9219-1.9604-3.3834z" fill="#01273e"/>
  <path d="m684.55 176.92c-0.33368 0.16672-0.72278 0.001618-1.1118-0.16348 0.20666-0.23082 0.41327-0.46164 0.74951-0.7549 0.1886 0.1539 0.24774 0.37024 0.3623 0.91838z" fill="#3c024a"/>
  <path d="m559.21 151.26c0.65668 0.27165 1.4518 0.81059 2.4276 1.5808-0.64264-0.28366-1.4659-0.79857-2.4276-1.5808z" fill="#5f0e62"/>
  <path d="m5.5971 217.02c0.097453 0.72324-0.065481 1.6865-0.41006 2.8264-0.071205-0.7444 0.039233-1.6654 0.41006-2.8264z" fill="#013b4c"/>
  <path d="m165.69 181.07c-0.24435 0.44908-0.793 0.9604-1.5838 1.6193 0.26508-0.42064 0.77229-0.98882 1.5838-1.6193z" fill="#013b4c"/>
  <path d="m239.18 129.23c0.37726-0.01709 0.96309 0.15324 1.6829 0.4614-0.40212 5.65e-4 -0.9382-0.1367-1.6829-0.4614z" fill="#014353"/>
  <path d="m603 232.36c0.094238 0.015244 0.2561 0.246 0.32178 0.55776-0.09613 0.080994-0.25415-0.34226-0.32178-0.55776z" fill="#480552"/>
  <path d="m551.04 464.31c0.45581-0.22351 0.94879-0.15103 1.811-0.012909-0.11481 0.50891-0.59906 0.95218-1.3153 1.4306-0.30762-0.35046-0.38312-0.73608-0.49573-1.4177z" fill="#090220"/>
  <path d="m275.96 249.29c-0.04245 0.34583-0.24576 0.90892-0.58322 1.5998 0.051362-0.37564 0.23688-0.87907 0.58322-1.5998z" fill="#280437"/>
  <path d="m319.93 232.69c-0.26666-0.22726-0.64902-0.70286-1.0625-1.3603 0.29486 0.24947 0.62085 0.6807 1.0625 1.3603z" fill="#370244"/>
  <path d="m510.97 168.44c-0.41388 0.13219-1.0299 0.045929-1.7947-0.1665 0.4317-0.10141 1.0121-0.07666 1.7947 0.1665z" fill="#480552"/>
  <path d="m556.19 149.21c0.38116 0.029556 0.93774 0.27782 1.6009 0.68683-0.40411-0.048874-0.9148-0.2585-1.6009-0.68683z" fill="#5f0e62"/>
  <path d="m501.98 166.41c-0.41577 0.11078-1.0344 0.00261-1.7996-0.23718 0.43451-0.081696 1.0156-0.031723 1.7996 0.23718z" fill="#480552"/>
  <path d="m143.93 150.16c0.066864-0.20639 0.25101-0.2549 0.54568-0.15031 0.078949 0.055023-0.16058 0.2171-0.16058 0.2171s-0.29936-0.006973-0.3851-0.066788z" fill="#014353"/>
  <path d="m412.89 220.66c-0.19586-0.21622-0.41983-0.71211-0.74725-1.4606 0.17078 0.22524 0.44492 0.7031 0.74725 1.4606z" fill="#012f44"/>
  <path d="m274.83 256.21c-0.038787 0.26752-0.23773 0.74292-0.54581 1.4485 0.055786-0.26007 0.22073-0.75034 0.54581-1.4485z" fill="#280437"/>
  <path d="m143.01 269.31c0.19847 0.24704 0.41429 0.7998 0.73265 1.6323-0.17006-0.25571-0.44269-0.79114-0.73265-1.6323z" fill="#01273e"/>
  <path d="m683.76 172.7c-0.16846-0.20476-0.36188-0.66386-0.64722-1.3536 0.14612 0.21268 0.38422 0.65599 0.64722 1.3536z" fill="#200133"/>
  <path d="m80.749 89.983c-0.038246 0.098861-0.31352 0.35267-0.79774 0.79411 0.0476-0.087967 0.30417-0.36356 0.79774-0.79411z" fill="#01515b"/>
  <path d="m82.737 88.124c-0.003769 0.1468-0.26663 0.34655-0.7413 0.67574 0.027313-0.11107 0.25865-0.36181 0.7413-0.67574z" fill="#01515b"/>
  <path d="m398.76 457.18c-0.032196 0.084259-0.26816 0.28433-0.68579 0.63098 0.008758-0.1048 0.22998-0.32535 0.68579-0.63098z" fill="#200133"/>
  <path d="m540.24 473.85c0.023438-0.075836 0.21924-0.27145 0.56067-0.6142 0.01062 0.10251-0.16736 0.31638-0.56067 0.6142z" fill="#090220"/>
  <path d="m121.77 66.198c-0.005966 0.10876-0.22218 0.3121-0.61844 0.64893-0.026581-0.13074 0.16951-0.36002 0.61844-0.64893z" fill="#01515b"/>
  <path d="m121.93 311.69c-0.18693 0.033905-0.38381-0.19192-0.73634-0.58096 0.1427-0.005493 0.4367 0.15601 0.73634 0.58096z" fill="#0e9179"/>
  <path d="m144.17 272.23c0.091324 0.024658 0.29993 0.254 0.65799 0.66315-0.11336 0.002899-0.3434-0.20984-0.65799-0.66315z" fill="#01273e"/>
  <path d="m139.83 219.07c-0.00734 0.08525-0.18311 0.30165-0.50111 0.66902-0.03032-0.10979 0.12799-0.33942 0.50111-0.66902z" fill="#012f43"/>
  <path d="m140.75 215.03c0.005737 0.10506-0.18381 0.34264-0.52168 0.75192-0.070679-0.13934 0.08757-0.40304 0.52168-0.75192z" fill="#012f43"/>
  <path d="m413.92 222.68c-0.11249-0.029953-0.27179-0.29199-0.5752-0.73538 0.17429-0.040055 0.39847 0.18814 0.5752 0.73538z" fill="#012f44"/>
  <path d="m414.91 226.71c-0.12622-0.041229-0.32483-0.37271-0.6828-0.95023 0.097229 0.055985 0.35382 0.35799 0.6828 0.95023z" fill="#012f44"/>
  <path d="m409.93 211.73c0.048676 0.23059-0.26596 0.073883-0.41687-0.014206-0.15088-0.088089-0.21832-0.48506-0.2482-0.6837 0.25751-0.046494 0.47293 0.17548 0.66507 0.69791z" fill="#012f44"/>
  <path d="m555.82 204.73c-0.12769-4.27e-4 -0.32306-0.22885-0.65576-0.63675 0.16455-0.058624 0.40631 0.13747 0.65576 0.63675z" fill="#480552"/>
  <path d="m320.84 233.75c-0.12158 6.11e-4 -0.31616-0.21919-0.65302-0.60753 0.16486-0.070267 0.40561 0.11494 0.65302 0.60753z" fill="#370244"/>
  <path d="m554.81 202.72c-0.12817 3.05e-4 -0.31189-0.22272-0.6239-0.62038 0.16595-0.060791 0.39825 0.12976 0.6239 0.62038z" fill="#480552"/>
  <path d="m321.82 235.74c-0.11487-0.008606-0.29797-0.2346-0.61099-0.63559 0.15353-0.044983 0.37778 0.15276 0.61099 0.63559z" fill="#370244"/>
  <path d="m553.9 200.73c-0.13904-0.010178-0.3244-0.26854-0.64984-0.71874 0.11066 0.026932 0.35846 0.24774 0.64984 0.71874z" fill="#480552"/>
  <path d="m599.71 265.93c0.02002 0.12085-0.17407 0.38376-0.5191 0.83948 0.005188-0.10095 0.1571-0.39768 0.5191-0.83948z" fill="#43024f"/>
  <path d="m537.07 181.69c-0.12494 0.027298-0.39069-0.16214-0.84985-0.50221 0.10333 5.03e-4 0.40405 0.14586 0.84985 0.50221z" fill="#480552"/>
  <path d="m167.72 179.22c-0.011841 0.10918-0.23634 0.29198-0.63576 0.60474-0.029495-0.13867 0.16985-0.35902 0.63576-0.60474z" fill="#013b4c"/>
  <path d="m237.09 129.15c0.055267-0.10121 0.23322-0.10841 0.67833-0.12346 0.26715-0.007859-0.11279 0.2478-0.11279 0.2478s-0.44284-0.030319-0.56554-0.12434z" fill="#014353"/>
  <path d="m517.08 170.65c-0.1358 0.034378-0.4046-0.16261-0.87836-0.50383 0.11188-0.005401 0.42865 0.1335 0.87836 0.50383z" fill="#480552"/>
  <path d="m514.04 169.67c-0.13269 0.034149-0.3844-0.15616-0.82666-0.48772 0.10809-0.005493 0.40747 0.12935 0.82666 0.48772z" fill="#480552"/>
  <path d="m119.02 306.71c-0.16779-0.002137-0.3161-0.24454-0.56828-0.66794 0.23531-0.10168 0.46585 0.10123 0.56828 0.66794z" fill="#0e9179"/>
  <path d="m364.78 309.05c-0.018372 0.086029-0.21548 0.32327-0.56464 0.73309-0.015442-0.10901 0.16385-0.36047 0.56464-0.73309z" fill="#011f37"/>
  <path d="m482.79 165.99c0.071869 0.06903-0.25311 0.083725-0.4151 0.087875-0.033722-0.1886 0.13467-0.24229 0.4151-0.087875z" fill="#480552"/>
  <path d="m478.77 165.97c0.076813 0.081146-0.2919 0.077209-0.47586 0.072082-0.022064-0.20816 0.17227-0.25752 0.47586-0.072082z" fill="#480552"/>
  <path d="m562.01 153.31c0.13806 0.004181 0.32166 0.24811 0.65759 0.66019-0.2052 0.10033-0.46008-0.095856-0.65759-0.66019z" fill="#5f0e62"/>
  <path d="m243.11 130.09c-0.1073-0.071289 0.34129-0.10669 0.5656-0.12018 0.22429-0.013473-0.086182 0.20403-0.086182 0.20403s-0.37212-0.012558-0.47942-0.083847z" fill="#014353"/>
  <path d="m242.29 129.93c0.006424-0.060318 0.2361-0.042725 0.57379 0.044708 0.11084 0.034424-0.34773-0.002243-0.57379-0.044708z" fill="#014353"/>
  <path d="m169.21 127.85c-2.9611 2.1493-5.7263 4.0648-9.047 5.9825-4.2596-1.5351-3.8152 1.2309-4.0107 3.3331 0 0-0.016312 0.011291-0.01561 0.017227-4.0268-0.71828-8.0367-1.8011-12.09-2-1.7575-0.086228-3.9732 1.2825-5.3231 2.643-1.9609 1.976-3.576 3.1222-6.4641 1.8333-1.045-0.46637-2.8695 0.010025-3.9915 0.65735-5.2875 3.0506-10.616 3.9132-16.608 2.0356-2.6659-0.83546-5.9827-0.96519-8.6408-0.18216-6.4929 1.9128-7.9731 1.3504-10.042-5.9269 6.4722-6.6223 12.997-12.87 20.016-19.366 0.74606-0.38689 0.93181-0.58811 1.0512-0.85064 0 0-0.006043 0.021057 0.011894 0.019012 0.6729-0.3299 1.3279-0.65775 2.6795-1.0865 3.3395-0.91042 6.6062-1.0253 8.4715-2.7005 2.485-2.2316 4.0227-2.1696 6.3036-0.24751 3.8594 3.2523 7.9821 3.9795 13.296 3.508 6.1898-0.54924 13.717-3.3998 18.558 4.1465 0.60341 0.94064 2.7372 0.86516 4.1353 1.3388 1.8524 0.62758 3.6786 1.3323 5.5386 2.3807 0.034805 0.62823 0.047104 0.8796 0.059418 1.131-1.2308 1.0333-2.4616 2.0666-3.8882 3.3337z" style="fill: rgb(67, 226, 167);"/>
  <path d="m173.01 123.01c-1.8375-0.67157-3.6637-1.3763-5.5161-2.0039-1.3981-0.47369-3.5319-0.3982-4.1353-1.3388-4.841-7.5462-12.368-4.6957-18.558-4.1465-5.3136 0.47149-9.4364-0.25574-13.296-3.508-2.2809-1.9221-3.8186-1.9841-6.3036 0.24751-1.8654 1.6752-5.132 1.7901-8.2068 2.6221 10.832-6.8622 22.096-13.747 33.903-20.687 1.0646-0.1258 1.5861-0.19672 2.1075-0.26763 0 0-0.016556 0.066452 0.14478-0.12069 0.41667-0.42778 0.67204-0.66842 0.92741-0.90906 0 0 0.19748-0.050598 0.59807-0.10433 1.0468-0.32018 1.693-0.58663 2.3392-0.85308 0-8e-6 -0.14511 0.16006-0.22722 0.091682 2.3529-0.49058 4.7878-0.91278 7.2025-1.3315 2.2191 9.4318 7.611 12.843 14.428 9.7871 5.2747 2.4041 10.262 4.6773 15.273 6.9611-2.1018 2.4468-3.2805 3.8189-4.4872 5.4849-0.028046 0.29385-0.14281 0.24358-0.33527 0.39165-0.74055 0.728-1.2886 1.3079-1.8367 1.8879 0 0-0.077835-0.12244-0.23408-0.017395-0.69302 0.54907-1.2298 0.9931-1.7666 1.4371-0.75998 0.44817-1.5199 0.89634-2.8639 1.3911-1.7695 1.0102-2.955 1.9737-4.1405 2.9373 0 0-0.011566 0.085563-0.29564 0.23829-0.75563 0.49427-1.2272 0.83582-1.6988 1.1774-0.13843 0.26107-0.34645 0.4422-1.1615 0.58826-0.97813 0.044648-1.4188 0.044419-1.8595 0.04419z" style="fill: rgb(67, 226, 167);"/>
  <path d="m178.32 120.85c0.89371-0.85464 2.0792-1.8182 3.5283-2.7412-0.90311 0.90446-2.0698 1.7684-3.5283 2.7412z" fill="#43e2a7"/>
  <path d="m187.36 115.13c0.22398-0.49637 0.77208-1.0763 1.5378-1.8617-0.25948 0.45575-0.7366 1.1169-1.5378 1.8617z" fill="#43e2a7"/>
  <path d="m185.28 116.53c0.28702-0.34255 0.82379-0.78658 1.578-1.3746-0.29778 0.32838-0.813 0.80075-1.578 1.3746z" fill="#43e2a7"/>
  <path d="m176.31 122.25c0.20012-0.22255 0.67168-0.5641 1.3845-1.0641-0.21018 0.20937-0.66164 0.57725-1.3845 1.0641z" fill="#43e2a7"/>
  <path d="m173.04 123.38c0.41818-0.37662 0.85887-0.37639 1.6303-0.38037-0.12543 0.39817-0.5816 0.80056-1.3043 1.3572-0.27887-0.097183-0.29117-0.34856-0.32597-0.97678z" fill="#43e2a7"/>
  <path d="m308.92 525.36c5.168 2.1921 9.7736 5.2834 11.838 11.443-2.3097-1.6033-4.6996-3.5564-7.5418-5.9665-1.6677-1.6667-2.8831-2.8763-4.0986-4.086-0.053894-0.37067-0.10779-0.74133-0.19775-1.3905z" style="fill: rgb(67, 226, 167);"/>
  <path d="m301.25 518.24c2.3527 1.8944 4.8904 4.0538 7.5492 6.5361-0.60617 0.009461-1.3336-0.3042-2.3266-0.74322-1.8563-1.9262-3.447-3.7271-5.2226-5.7929z" style="fill: rgb(67, 226, 167);"/>
  <path d="m309.14 527.1c1.1939 0.85492 2.4093 2.0645 3.8159 3.5314-2.6859 0.90979-3.6043-0.71075-3.8159-3.5314z" style="fill: rgb(67, 226, 167);"/>
  <path d="m321.02 537.31c0.19705 0.23382 0.45645 0.75671 0.82925 1.5508-0.18005-0.23981-0.47348-0.75079-0.82925-1.5508z" fill="#024047"/>
  <path d="m503.34 437.13c2.447-2.0403 5.2305-3.9635 8.3279-6.0208-1.0042 3.8771-2.4334 7.7411-8.3279 6.0208z" style="fill: rgb(161, 39, 155);"/>
  <path d="m495.21 443.82c0.5557-0.7522 1.3947-1.6403 2.5122-2.6669-0.55734 0.75131-1.3931 1.6412-2.5122 2.6669z" fill="#16012b"/>
  <path d="m514.18 429.81c0.2923-0.38507 0.8194-0.9364 1.5814-1.6533-0.2923 0.38532-0.81946 0.93616-1.5814 1.6533z" fill="#16012b"/>
  <path d="m226.15 458.3c0.67542 0.27835 1.5511 0.79013 2.6271 1.5378-0.67545-0.27759-1.5511-0.79102-2.6271-1.5378z" fill="#025556"/>
  <path d="m224.89 457.24c0.097474 0.022614 0.38675 0.24066 0.88629 0.62848-0.091309-0.031189-0.3929-0.23212-0.88629-0.62848z" fill="#025556"/>
  <path d="m354.29 129.8c0.35626 1.332 0.80997 2.595 0.96973 3.8941 0.22589 1.837 0.23468 3.7008 0.33627 5.5531-3.0075-0.39563-6.015-0.79128-9.0226-1.1869 0.55389-2.0404 0.61627-4.4617 1.8121-6.0045 1.0165-1.3114 3.3399-1.6099 5.4259-2.3677 0.34082-0.011185 0.44473 0.059143 0.47858 0.112z" style="fill: rgb(67, 226, 167);"/>
  <path d="m422.09 105.37c18.877-9.1951 38.843-14.56 59.585-16.77 6.7032-0.71414 13.569 0.097709 20.825 0.18566 14.255 2.603 28.046 5.2318 42.192 7.9653 11.883 5.6442 23.411 11.184 35.175 16.971-6.8634 5.5874-13.456 1.5638-19.954-1.0993-3.3021-1.3534-6.2047-2.0516-9.4432-0.13278-0.94604 0.56051-2.7386 1.1601-3.2783 0.70839-4.6521-3.8934-8.3273 0.33373-12.401 1.1975-2.5958 0.55036-5.2547 1.1113-7.8852 1.1108-3.1578-5.57e-4 -5.3421 0.27186-7.3472 3.5544-0.90717 1.4852-5.5311 0.82429-8.4753 0.90734-3.1559 0.08902-6.3264-0.25209-9.4782-0.11725-4.6209 0.19769-9.2616 1.1458-13.837 0.8617-4.8727-0.30258-9.1521-0.60256-10.307 5.9334-1.4341-0.59094-2.6239-0.78346-3.3993-1.4547-2.673-2.3141-5.4485-2.1929-7.4847 0.32743-4.0991 5.0737-8.602 3.0381-12.397 0.48494-3.8468-2.5881-7.4253-4.9724-12.246-4.621-0.47348 0.034516-1.0725-0.075218-1.4364-0.35116-5.8881-4.4645-11.762-8.9488-17.586-13.496-0.4483-0.35001-0.50296-1.2042-0.82199-2.1657z" style="fill: rgb(161, 39, 155);"/>
  <path d="m147.74 400.24c0.1118 0.036469 0.44551 0.31342 1.0223 0.80731-0.10477-0.044281-0.45256-0.30554-1.0223-0.80731z" fill="#087a6a"/>
  <path d="m508.41 127.22c-0.76962-1.0236-1.3025-1.9157-1.8354-2.8077 0.72253-0.21539 1.7808-0.83643 2.1038-0.56909 0.91931 0.76092 1.5389 1.8839 2.2765 2.8645-0.76938 0.21462-1.5388 0.42924-2.5448 0.51237z" style="fill: rgb(161, 39, 155);"/>
  <path d="m488.29 125.66c0.96432-0.13918 1.8085-0.13918 2.6526-0.13918-0.07547 0.39636-0.15097 0.79272-0.22644 1.1891-0.84879-0.30358-1.6976-0.60716-2.4262-1.0499z" fill="#7d1d78"/>
  <path d="m587.22 119.16c0.70685 0.29295 1.6296 0.82703 2.8004 1.5758-0.69623-0.30178-1.6403-0.81821-2.8004-1.5758z" fill="#7d1d78"/>
  <path d="m407.24 509.98c3.8545-3.6036 7.9849-7.1738 12.425-10.884-2.2784 5.309-6.5606 8.8493-12.425 10.884z" style="fill: rgb(161, 39, 155);"/>
  <path d="m686.69 188.04c2.7089 10.018 5.0171 20.054 7.16 30.789-0.47601 1.4588-1.062 2.2217-1.0532 2.9778 0.059875 5.2082-3.0779 6.4159-7.4683 6.1745-1.4839-0.081604-2.9996 0.02324-4.4478-0.24444-3.938-0.72794-6.9423 0.35406-9.6945 3.4366-1.0823 1.2122-3.9821 1.9469-5.5217 1.4-5.5736-1.9801-10.676-1.5966-15.667 1.4325 0 0-0.49487-0.002243-0.74219-0.002502-0.18298-12.112-1.4658-24.013-6.0366-36.093-0.54144-2.0543-0.8233-3.4579-1.1051-4.8614 2.4277 0.49489 4.8696 0.93108 7.2773 1.5093 1.2168 0.29218 2.3742 1.2141 3.5544 1.2065 4.068-0.026047 8.1452-0.62334 12.199-0.46934 5.8019 0.22043 11.132-0.055939 15.351-4.9958 1.1836-1.3858 3.8227-1.5285 6.1949-2.2598z" style="fill: rgb(161, 39, 155);"/>
  <path d="m641.97 192.71c0.42291 1.7409 0.70477 3.1444 1.0416 4.9027-4.9308 0.39189-9.9562 0.8336-14.891 0.3519-4.9033-0.47861-9.7717-1.6792-14.546-2.9682-2.6121-0.70518-5.0563-2.1403-7.4685-3.4455-2.1595-1.1684-4.2361-2.5197-6.2297-3.9565-1.9697-1.4197-4.9154-2.7191-5.4764-4.6421-2.2081-7.5685-8.4757-9.9955-14.892-12.986-1.6647-3.17-2.9929-6.2188-4.4199-9.6089 9.241-2.1233 17.866-0.45622 26.042 4.4844 5.2369 3.1643 10.95 5.5376 16.202 8.6801 2.3942 1.4326 4.7298 3.543 6.1498 5.911 3.6512 6.0887 7.4843 7.9333 14.3 5.6764 1.5727 2.3209 2.81 4.7922 4.1884 7.6008z" style="fill: rgb(161, 39, 155);"/>
  <path d="m113.16 371.26c0.76371 0.50415 1.6952 1.2577 2.7583 2.2885-0.77579-0.49481-1.6831-1.267-2.7583-2.2885z" fill="#087a6a"/>
  <path d="m173.33 84.602c0.02948-0.10949 0.28792-0.2531 0.75871-0.47392-0.004715 0.13581-0.25209 0.30814-0.75871 0.47392z" fill="#025a62"/>
  <path d="m66.004 303.42c-0.66563-0.69818-1.4318-1.6989-2.2801-3.0203 0.6718 0.69214 1.4257 1.7049 2.2801 3.0203z" fill="#0e9179"/>
  <path d="m66.082 306.1c0.14727-0.049591 0.35996 0.13135 0.5751 0.58466-0.10891-0.006622-0.27962-0.21542-0.5751-0.58466z" fill="#012f44"/>
  <path d="m146.89 144.81c-0.006042 0.13148-0.16933 0.57126-0.58494 1.2624-0.025665-0.15048 0.20102-0.55229 0.58494-1.2624z" fill="#33d59f"/>
  <path d="m151.29 141.23c-0.059845 0.10756-0.37004 0.46327-0.9706 1.0268 0.046493-0.12102 0.38338-0.44983 0.9706-1.0268z" fill="#33d59f"/>
  <path d="m113.88 116.14c0.046463 0.15125-0.13929 0.35247-0.59035 0.54888 9.31e-4 -0.11825 0.20874-0.28295 0.59035-0.54888z" fill="#01515b"/>
  <path d="m156.65 91.919c-0.27832 0.28427-0.92452 0.55072-1.8975 0.94118 0.29202-0.23699 0.91081-0.59799 1.8975-0.94118z" fill="#43e2a7"/>
  <path d="m152.68 93.837c-0.19327 0.15744-0.71472 0.22836-1.4334 0.28224 0.23692-0.13428 0.67108-0.25152 1.4334-0.28224z" fill="#43e2a7"/>
  <path d="m153.81 92.979c0.020172 0.15557-0.2352 0.39621-0.68448 0.81352 0.007019-0.12504 0.20798-0.42674 0.68448-0.81352z" fill="#43e2a7"/>
  <path d="m649.99 234.47c4.9942-3.4969 10.096-3.8804 15.67-1.9003 1.5396 0.54697 4.4394-0.18779 5.5217-1.4 2.7523-3.0826 5.7565-4.1646 9.6945-3.4366 1.4481 0.26768 2.9639 0.16284 4.4478 0.24444 4.3903 0.24139 7.5281-0.96634 7.4683-6.1745-0.008728-0.7561 0.57721-1.519 1.0653-2.5498 0.50952 3.0919 0.84168 6.4548 1.1819 10.261-0.63318 6.7102-0.91266 13.045-2.0721 19.214-0.5592 2.9755-2.7052 5.6792-4.2637 8.4318-1.199 2.1177-2.6027 4.1196-3.9719 6.2616-2.262-1.6154-4.375-3.9839-6.9579-4.7338-2.7274-0.79184-5.9266 0.21838-8.8746-0.051331-2.0803-0.19031-4.1791-0.99844-6.1061-1.886-5.5259-2.5452-7.9079-1.7544-10.99 3.5783-1.1268 1.9496-2.7465 3.6143-4.4496 5.5407 0.67224-10.223 1.6528-20.578 2.6367-31.4z" style="fill: rgb(161, 39, 155);"/>
  <path d="m156.45 137.05c-0.10262-1.9926-0.54697-4.7586 3.4082-3.0854-0.86931 1.0825-1.9897 2.0291-3.4082 3.0854z" fill="#2dcd9c"/>
</svg>